<?xml version="1.0" encoding="UTF-8" standalone="no"?>
<!-- Created with Inkscape (http://www.inkscape.org/) -->

<svg
   width="183.33035mm"
   height="172.88237mm"
   viewBox="0 0 183.33035 172.88237"
   version="1.1"
   id="svg1"
   xml:space="preserve"
   inkscape:version="1.3.2 (091e20e, 2023-11-25, custom)"
   sodipodi:docname="camera logo.svg"
   xmlns:inkscape="http://www.inkscape.org/namespaces/inkscape"
   xmlns:sodipodi="http://sodipodi.sourceforge.net/DTD/sodipodi-0.dtd"
   xmlns="http://www.w3.org/2000/svg"
   xmlns:svg="http://www.w3.org/2000/svg"><sodipodi:namedview
     id="namedview1"
     pagecolor="#ffffff"
     bordercolor="#000000"
     borderopacity="0.25"
     inkscape:showpageshadow="2"
     inkscape:pageopacity="0.0"
     inkscape:pagecheckerboard="0"
     inkscape:deskcolor="#d1d1d1"
     inkscape:document-units="mm"
     inkscape:zoom="0.35856832"
     inkscape:cx="329.08652"
     inkscape:cy="514.54629"
     inkscape:window-width="1280"
     inkscape:window-height="795"
     inkscape:window-x="296"
     inkscape:window-y="190"
     inkscape:window-maximized="0"
     inkscape:current-layer="layer1" /><defs
     id="defs1" /><g
     inkscape:label="Calque 1"
     inkscape:groupmode="layer"
     id="layer1"
     transform="translate(-10.901286,-1.1830343)"><g
       id="g1"
       transform="matrix(0.11457896,0,0,0.10805235,10.092645,0.42126519)"
       style="fill:#5ba55d;fill-opacity:1"><path
         d="m 1111.5,1167.7 c 12.699,-133.31 10.559,-258.62 8.2264,-320.42 l -143.8,249.06 0.2117,0.3142 c -0.0488,0.033 -0.2675,0.1794 -0.64,0.4279 l -0.493,0.8541 h -0.7924 c -17.706,11.733 -154.61,101.31 -316.72,175.42 -101.92,46.596 -193.85,78.116 -273.23,93.686 -51.269,10.056 -97.471,13.434 -138.33,10.185 144.4,142.12 342.52,229.81 561.13,229.81 60.049,0 118.55,-6.6301 174.82,-19.173 29.582,-34.931 54.808,-82.6 75.345,-142.53 25.58,-74.648 43.843,-168.06 54.28,-277.63 z"
         id="path1"
         style="fill:#5ba55d;fill-opacity:1" /><path
         d="m 639.1,516.15 h 0.7925 c 17.706,-11.734 154.61,-101.31 316.72,-175.42 101.92,-46.596 193.85,-78.116 273.23,-93.685 51.269,-10.056 97.471,-13.434 138.33,-10.185 -144.4,-142.12 -342.52,-229.81 -561.13,-229.81 -60.049,0 -118.55,6.6301 -174.82,19.173 -29.582,34.931 -54.808,82.6 -75.345,142.53 -25.58,74.648 -43.843,168.06 -54.28,277.63 -12.699,133.31 -10.559,258.62 -8.2264,320.42 l 143.8,-249.06 -0.2115,-0.3142 c 0.0487,-0.0328 0.2673,-0.1794 0.6399,-0.4278 l 0.4931,-0.8543 z"
         id="path2"
         style="fill:#5ba55d;fill-opacity:1" /><path
         d="m 1234.8,271.26 c -77.438,15.171 -167.46,46.06 -267.58,91.809 -121.8,55.659 -229.25,120.16 -281.61,153.09 H 973.2 l 0.1664,-0.3403 c 0.0529,0.0258 0.2892,0.1418 0.6906,0.3403 h 0.9865 l 0.396,0.6862 c 19.015,9.4673 165.04,83.238 310.28,186.58 91.316,64.972 164.58,128.82 217.75,189.78 34.431,39.473 60.501,77.891 78.119,114.99 16.643,-64.267 25.504,-131.67 25.504,-201.14 0,-209.04 -80.185,-399.34 -211.46,-541.86 -44.988,-8.0972 -98.791,-6.0956 -160.84,6.0609 z"
         id="path3"
         style="fill:#5ba55d;fill-opacity:1" /><path
         d="M 1484.9,909.55 C 1433.043,850.073 1361.28,787.55 1271.6,723.72 1162.5,646.066 1052.91,585.27 998.22,556.38 l 143.8,249.06 0.3779,-0.0261 c 0,0.0587 0.022,0.3212 0.051,0.7682 l 0.493,0.8542 -0.3961,0.6861 c 1.3085,21.201 10.435,184.55 -6.4392,362 -10.609,111.57 -29.276,206.94 -55.482,283.47 -16.969,49.555 -37.205,91.341 -60.524,125.15 261.82,-72.164 469.85,-274.06 550.59,-532.21 -15.454,-43.107 -44.133,-88.813 -85.791,-136.59 z"
         id="path4"
         style="fill:#5ba55d;fill-opacity:1" /><path
         d="m 379.35,1342.8 c 77.438,-15.171 167.46,-46.06 267.58,-91.809 121.8,-55.659 229.25,-120.16 281.61,-153.09 H 640.95 l -0.1664,0.3403 c -0.0529,-0.026 -0.2892,-0.1418 -0.6906,-0.3403 h -0.9865 l -0.396,-0.6862 c -19.015,-9.4673 -165.04,-83.238 -310.28,-186.58 -91.316,-64.972 -164.58,-128.82 -217.75,-189.78 -34.432,-39.473 -60.501,-77.891 -78.119,-114.99 -16.642,64.267 -25.504,131.67 -25.504,201.14 0,209.04 80.185,399.34 211.46,541.86 44.988,8.0972 98.791,6.0955 160.84,-6.061 z"
         id="path5"
         style="fill:#5ba55d;fill-opacity:1" /><path
         d="m 129.19,704.55 c 51.857,59.477 123.62,122 213.3,185.83 109.1,77.654 218.69,138.45 273.38,167.34 l -143.8,-249.06 -0.3779,0.026 c -0.004,-0.0586 -0.0217,-0.3212 -0.0505,-0.7681 l -0.4931,-0.8542 0.3961,-0.6862 c -1.3083,-21.201 -10.435,-184.55 6.4392,-362 10.609,-111.57 29.276,-206.94 55.482,-283.47 16.969,-49.555 37.205,-91.341 60.524,-125.15 -261.82,72.164 -469.85,274.06 -550.59,532.21 15.454,43.107 44.133,88.813 85.791,136.59 z"
         id="path6"
         style="fill:#5ba55d;fill-opacity:1" /></g></g></svg>
