<?xml version="1.0" encoding="UTF-8" standalone="no"?>
<!-- Created with Inkscape (http://www.inkscape.org/) -->

<svg
   width="29.450241mm"
   height="29.450945mm"
   viewBox="0 0 29.450241 29.450945"
   version="1.1"
   id="svg1"
   xml:space="preserve"
   inkscape:version="1.3.2 (091e20e, 2023-11-25, custom)"
   sodipodi:docname="Facebook logo.svg"
   xmlns:inkscape="http://www.inkscape.org/namespaces/inkscape"
   xmlns:sodipodi="http://sodipodi.sourceforge.net/DTD/sodipodi-0.dtd"
   xmlns="http://www.w3.org/2000/svg"
   xmlns:svg="http://www.w3.org/2000/svg"><sodipodi:namedview
     id="namedview1"
     pagecolor="#ffffff"
     bordercolor="#000000"
     borderopacity="0.25"
     inkscape:showpageshadow="2"
     inkscape:pageopacity="0.0"
     inkscape:pagecheckerboard="0"
     inkscape:deskcolor="#d1d1d1"
     inkscape:document-units="mm"
     inkscape:zoom="0.74920735"
     inkscape:cx="56.059247"
     inkscape:cy="56.059247"
     inkscape:window-width="1382"
     inkscape:window-height="1008"
     inkscape:window-x="131"
     inkscape:window-y="0"
     inkscape:window-maximized="0"
     inkscape:current-layer="layer1" /><defs
     id="defs1"><clipPath
       clipPathUnits="userSpaceOnUse"
       id="clipPath3"><path
         d="M 0,500 H 500 V 0 H 0 Z"
         transform="translate(-102.0825,-332.72561)"
         id="path3" /></clipPath><clipPath
       clipPathUnits="userSpaceOnUse"
       id="clipPath5"><path
         d="M 0,500 H 500 V 0 H 0 Z"
         transform="translate(-87.458005,-304.51761)"
         id="path5" /></clipPath><clipPath
       clipPathUnits="userSpaceOnUse"
       id="clipPath7"><path
         d="M 0,500 H 500 V 0 H 0 Z"
         transform="translate(-115.73391,-373.62551)"
         id="path7" /></clipPath><clipPath
       clipPathUnits="userSpaceOnUse"
       id="clipPath33"><path
         d="M 0,500 H 500 V 0 H 0 Z"
         transform="translate(-322.83791,-354.29301)"
         id="path33" /></clipPath><clipPath
       clipPathUnits="userSpaceOnUse"
       id="clipPath35"><path
         d="M 0,500 H 500 V 0 H 0 Z"
         transform="translate(-303.94821,-304.51761)"
         id="path35" /></clipPath><clipPath
       clipPathUnits="userSpaceOnUse"
       id="clipPath37"><path
         d="M 0,500 H 500 V 0 H 0 Z"
         transform="translate(-332.22461,-373.62551)"
         id="path37" /></clipPath><clipPath
       clipPathUnits="userSpaceOnUse"
       id="clipPath45"><path
         d="M 0,500 H 500 V 0 H 0 Z"
         transform="translate(-198.89451,-354.95121)"
         id="path45" /></clipPath><clipPath
       clipPathUnits="userSpaceOnUse"
       id="clipPath47"><path
         d="M 0,500 H 500 V 0 H 0 Z"
         transform="translate(-195.66891,-304.51761)"
         id="path47" /></clipPath><clipPath
       clipPathUnits="userSpaceOnUse"
       id="clipPath49"><path
         d="M 0,500 H 500 V 0 H 0 Z"
         transform="translate(-223.9453,-373.62551)"
         id="path49" /></clipPath><clipPath
       clipPathUnits="userSpaceOnUse"
       id="clipPath39"><path
         d="M 0,500 H 500 V 0 H 0 Z"
         transform="translate(-434.18651,-246.8271)"
         id="path39" /></clipPath><clipPath
       clipPathUnits="userSpaceOnUse"
       id="clipPath41"><path
         d="M 0,500 H 500 V 0 H 0 Z"
         transform="translate(-412.46191,-191.81351)"
         id="path41" /></clipPath><clipPath
       clipPathUnits="userSpaceOnUse"
       id="clipPath43"><path
         d="M 0,500 H 500 V 0 H 0 Z"
         transform="translate(-440.73731,-260.9199)"
         id="path43" /></clipPath></defs><g
     inkscape:label="Calque 1"
     inkscape:groupmode="layer"
     id="layer1"
     transform="translate(-90.16073,-133.59795)"><g
       inkscape:label="Calque 1"
       id="layer1-3"
       transform="translate(-16.541106,74.066702)"
       style="fill:#011202;fill-opacity:1"><path
         id="path44"
         d="m 0,0 v 3.477 c 0,1.71 1.134,2.101 1.934,2.101 h 4.888 v 7.455 L 0.093,13.07 c -7.454,0 -9.164,-5.578 -9.164,-9.129 V 0 h -4.314 v -5.261 -3.44 h 4.351 v -21.753 h 8.7 V -8.701 H 6.135 L 6.451,-5.28 6.935,0 Z"
         style="fill:#011202;fill-opacity:1;fill-rule:evenodd;stroke:none"
         transform="matrix(0.35277776,0,0,-0.35277776,122.5647,71.190341)"
         clip-path="url(#clipPath45)" /><path
         id="path46"
         d="m 0,0 c -23.016,0 -41.74,18.726 -41.74,41.741 0,23.016 18.724,41.742 41.74,41.742 2.823,0 5.644,-0.284 8.387,-0.843 1.509,-0.308 3.014,-0.704 4.476,-1.177 0.738,-0.238 1.142,-1.029 0.903,-1.767 -0.238,-0.737 -1.027,-1.141 -1.767,-0.903 -1.361,0.441 -2.767,0.811 -4.173,1.098 C 5.268,80.413 2.635,80.677 0,80.677 -21.469,80.677 -38.935,63.21 -38.935,41.741 -38.935,20.272 -21.469,2.807 0,2.807 c 21.47,0 38.936,17.465 38.936,38.934 0,6.392 -1.582,12.729 -4.574,18.325 -0.365,0.684 -0.106,1.534 0.577,1.899 0.68,0.365 1.533,0.108 1.899,-0.576 3.208,-6.002 4.903,-12.796 4.903,-19.648 C 41.741,18.726 23.016,0 0,0"
         style="fill:#011202;fill-opacity:1;fill-rule:nonzero;stroke:none"
         transform="matrix(0.35277776,0,0,-0.35277776,121.42678,88.982195)"
         clip-path="url(#clipPath47)" /><path
         id="path48"
         d="m 0,0 c -0.355,0 -0.711,0.134 -0.983,0.402 -0.996,0.979 -2.056,1.914 -3.148,2.779 -0.842,0.666 -1.721,1.304 -2.612,1.897 -0.645,0.429 -0.82,1.3 -0.391,1.945 0.431,0.646 1.302,0.82 1.946,0.391 C -4.233,6.779 -3.292,6.095 -2.391,5.381 -1.22,4.455 -0.084,3.453 0.984,2.403 1.536,1.86 1.544,0.972 1.001,0.419 0.727,0.14 0.362,0 0,0"
         style="fill:#011202;fill-opacity:1;fill-rule:nonzero;stroke:none"
         transform="matrix(0.35277776,0,0,-0.35277776,131.40206,64.602463)"
         clip-path="url(#clipPath49)" /></g></g></svg>
