<?xml version="1.0" encoding="UTF-8" standalone="no"?>
<!-- Created with Inkscape (http://www.inkscape.org/) -->

<svg
   width="29.450592mm"
   height="29.450945mm"
   viewBox="0 0 29.450592 29.450945"
   version="1.1"
   id="svg1"
   xml:space="preserve"
   sodipodi:docname="Instagram logo.svg"
   inkscape:version="1.3.2 (091e20e, 2023-11-25, custom)"
   xmlns:inkscape="http://www.inkscape.org/namespaces/inkscape"
   xmlns:sodipodi="http://sodipodi.sourceforge.net/DTD/sodipodi-0.dtd"
   xmlns="http://www.w3.org/2000/svg"
   xmlns:svg="http://www.w3.org/2000/svg"><sodipodi:namedview
     id="namedview1"
     pagecolor="#ffffff"
     bordercolor="#000000"
     borderopacity="0.25"
     inkscape:showpageshadow="2"
     inkscape:pageopacity="0.0"
     inkscape:pagecheckerboard="0"
     inkscape:deskcolor="#d1d1d1"
     inkscape:document-units="mm"
     inkscape:zoom="0.74920735"
     inkscape:cx="55.391875"
     inkscape:cy="56.059247"
     inkscape:window-width="1382"
     inkscape:window-height="1008"
     inkscape:window-x="131"
     inkscape:window-y="0"
     inkscape:window-maximized="0"
     inkscape:current-layer="layer1" /><defs
     id="defs1"><clipPath
       clipPathUnits="userSpaceOnUse"
       id="clipPath3"><path
         d="M 0,500 H 500 V 0 H 0 Z"
         transform="translate(-102.0825,-332.72561)"
         id="path3" /></clipPath><clipPath
       clipPathUnits="userSpaceOnUse"
       id="clipPath5"><path
         d="M 0,500 H 500 V 0 H 0 Z"
         transform="translate(-87.458005,-304.51761)"
         id="path5" /></clipPath><clipPath
       clipPathUnits="userSpaceOnUse"
       id="clipPath7"><path
         d="M 0,500 H 500 V 0 H 0 Z"
         transform="translate(-115.73391,-373.62551)"
         id="path7" /></clipPath><clipPath
       clipPathUnits="userSpaceOnUse"
       id="clipPath33"><path
         d="M 0,500 H 500 V 0 H 0 Z"
         transform="translate(-322.83791,-354.29301)"
         id="path33" /></clipPath><clipPath
       clipPathUnits="userSpaceOnUse"
       id="clipPath35"><path
         d="M 0,500 H 500 V 0 H 0 Z"
         transform="translate(-303.94821,-304.51761)"
         id="path35" /></clipPath><clipPath
       clipPathUnits="userSpaceOnUse"
       id="clipPath37"><path
         d="M 0,500 H 500 V 0 H 0 Z"
         transform="translate(-332.22461,-373.62551)"
         id="path37" /></clipPath><clipPath
       clipPathUnits="userSpaceOnUse"
       id="clipPath45"><path
         d="M 0,500 H 500 V 0 H 0 Z"
         transform="translate(-198.89451,-354.95121)"
         id="path45" /></clipPath><clipPath
       clipPathUnits="userSpaceOnUse"
       id="clipPath47"><path
         d="M 0,500 H 500 V 0 H 0 Z"
         transform="translate(-195.66891,-304.51761)"
         id="path47" /></clipPath><clipPath
       clipPathUnits="userSpaceOnUse"
       id="clipPath49"><path
         d="M 0,500 H 500 V 0 H 0 Z"
         transform="translate(-223.9453,-373.62551)"
         id="path49" /></clipPath><clipPath
       clipPathUnits="userSpaceOnUse"
       id="clipPath39"><path
         d="M 0,500 H 500 V 0 H 0 Z"
         transform="translate(-434.18651,-246.8271)"
         id="path39" /></clipPath><clipPath
       clipPathUnits="userSpaceOnUse"
       id="clipPath41"><path
         d="M 0,500 H 500 V 0 H 0 Z"
         transform="translate(-412.46191,-191.81351)"
         id="path41" /></clipPath><clipPath
       clipPathUnits="userSpaceOnUse"
       id="clipPath43"><path
         d="M 0,500 H 500 V 0 H 0 Z"
         transform="translate(-440.73731,-260.9199)"
         id="path43" /></clipPath><clipPath
       clipPathUnits="userSpaceOnUse"
       id="clipPath3-4"><path
         d="M 0,500 H 500 V 0 H 0 Z"
         transform="translate(-102.0825,-332.72561)"
         id="path3-4" /></clipPath><clipPath
       clipPathUnits="userSpaceOnUse"
       id="clipPath5-1"><path
         d="M 0,500 H 500 V 0 H 0 Z"
         transform="translate(-87.458005,-304.51761)"
         id="path5-4" /></clipPath><clipPath
       clipPathUnits="userSpaceOnUse"
       id="clipPath7-2"><path
         d="M 0,500 H 500 V 0 H 0 Z"
         transform="translate(-115.73391,-373.62551)"
         id="path7-4" /></clipPath><clipPath
       clipPathUnits="userSpaceOnUse"
       id="clipPath33-8"><path
         d="M 0,500 H 500 V 0 H 0 Z"
         transform="translate(-322.83791,-354.29301)"
         id="path33-7" /></clipPath><clipPath
       clipPathUnits="userSpaceOnUse"
       id="clipPath35-7"><path
         d="M 0,500 H 500 V 0 H 0 Z"
         transform="translate(-303.94821,-304.51761)"
         id="path35-1" /></clipPath><clipPath
       clipPathUnits="userSpaceOnUse"
       id="clipPath37-2"><path
         d="M 0,500 H 500 V 0 H 0 Z"
         transform="translate(-332.22461,-373.62551)"
         id="path37-6" /></clipPath><clipPath
       clipPathUnits="userSpaceOnUse"
       id="clipPath45-9"><path
         d="M 0,500 H 500 V 0 H 0 Z"
         transform="translate(-198.89451,-354.95121)"
         id="path45-1" /></clipPath><clipPath
       clipPathUnits="userSpaceOnUse"
       id="clipPath47-5"><path
         d="M 0,500 H 500 V 0 H 0 Z"
         transform="translate(-195.66891,-304.51761)"
         id="path47-2" /></clipPath><clipPath
       clipPathUnits="userSpaceOnUse"
       id="clipPath49-4"><path
         d="M 0,500 H 500 V 0 H 0 Z"
         transform="translate(-223.9453,-373.62551)"
         id="path49-0" /></clipPath><clipPath
       clipPathUnits="userSpaceOnUse"
       id="clipPath39-1"><path
         d="M 0,500 H 500 V 0 H 0 Z"
         transform="translate(-434.18651,-246.8271)"
         id="path39-0" /></clipPath><clipPath
       clipPathUnits="userSpaceOnUse"
       id="clipPath41-0"><path
         d="M 0,500 H 500 V 0 H 0 Z"
         transform="translate(-412.46191,-191.81351)"
         id="path41-3" /></clipPath><clipPath
       clipPathUnits="userSpaceOnUse"
       id="clipPath43-6"><path
         d="M 0,500 H 500 V 0 H 0 Z"
         transform="translate(-440.73731,-260.9199)"
         id="path43-1" /></clipPath></defs><g
     inkscape:label="Calque 1"
     inkscape:groupmode="layer"
     id="layer1"
     transform="translate(-0.10704552,-56.611031)"><g
       inkscape:label="Calque 1"
       id="layer1-3"
       transform="translate(-68.420037,-2.920218)"
       style="fill:#011202;fill-opacity:1"><path
         id="path2"
         d="m 0,0 c 0,-0.495 -0.401,-0.896 -0.896,-0.896 h -4.451 c -0.495,0 -0.896,0.401 -0.896,0.896 v 8.157 c 0,1.216 0.357,5.332 -3.18,5.332 -2.744,0 -3.3,-2.817 -3.411,-4.081 V 0 c 0,-0.495 -0.401,-0.896 -0.896,-0.896 h -4.306 c -0.495,0 -0.896,0.401 -0.896,0.896 v 17.546 c 0,0.495 0.401,0.897 0.896,0.897 h 4.306 c 0.494,0 0.896,-0.401 0.896,-0.897 v -1.517 c 1.017,1.527 2.529,2.705 5.748,2.705 C 0.041,18.734 0,12.075 0,8.416 Z m -24.728,20.082 c -2.176,0 -3.94,1.764 -3.94,3.941 0,2.177 1.764,3.941 3.94,3.941 2.177,0 3.941,-1.765 3.941,-3.941 0,-2.177 -1.764,-3.941 -3.941,-3.941 m 3.049,-20.004 c 0,-0.538 -0.436,-0.974 -0.974,-0.974 h -4.148 c -0.539,0 -0.975,0.436 -0.975,0.974 v 17.39 c 0,0.538 0.436,0.974 0.975,0.974 h 4.148 c 0.538,0 0.974,-0.436 0.974,-0.974 z M 0.537,32.043 h -30.323 c -1.849,0 -3.348,-1.499 -3.348,-3.348 V -1.627 c 0,-1.85 1.499,-3.35 3.348,-3.35 H 0.537 c 1.849,0 3.349,1.5 3.349,3.35 v 30.322 c 0,1.849 -1.5,3.348 -3.349,3.348"
         style="fill:#011202;fill-opacity:1;fill-rule:nonzero;stroke:none"
         transform="matrix(0.35277776,0,0,-0.35277776,88.411577,79.031038)"
         clip-path="url(#clipPath3-4)" /><path
         id="path4"
         d="m 0,0 c -23.016,0 -41.741,18.726 -41.741,41.741 0,23.016 18.725,41.742 41.741,41.742 2.822,0 5.644,-0.284 8.386,-0.843 1.51,-0.308 3.016,-0.704 4.477,-1.177 0.737,-0.238 1.141,-1.029 0.903,-1.767 -0.239,-0.738 -1.031,-1.14 -1.767,-0.903 -1.363,0.441 -2.767,0.811 -4.174,1.098 -2.557,0.522 -5.19,0.786 -7.825,0.786 -21.469,0 -38.935,-17.467 -38.935,-38.936 0,-21.469 17.466,-38.934 38.935,-38.934 21.469,0 38.936,17.465 38.936,38.934 0,6.391 -1.582,12.728 -4.573,18.325 -0.365,0.684 -0.108,1.534 0.575,1.899 0.685,0.368 1.533,0.107 1.899,-0.576 3.208,-6.003 4.904,-12.797 4.904,-19.648 C 41.741,18.726 23.016,0 0,0"
         style="fill:#011202;fill-opacity:1;fill-rule:nonzero;stroke:none"
         transform="matrix(0.35277776,0,0,-0.35277776,83.252379,88.982195)"
         clip-path="url(#clipPath5-1)" /><path
         id="path6"
         d="m 0,0 c -0.354,0 -0.71,0.134 -0.983,0.402 -0.996,0.979 -2.056,1.914 -3.148,2.779 -0.842,0.666 -1.72,1.304 -2.611,1.897 -0.646,0.428 -0.821,1.299 -0.392,1.945 0.429,0.645 1.3,0.82 1.946,0.391 C -4.233,6.779 -3.292,6.095 -2.39,5.381 -1.219,4.455 -0.084,3.453 0.983,2.403 1.536,1.86 1.544,0.972 1.001,0.419 0.727,0.14 0.363,0 0,0"
         style="fill:#011202;fill-opacity:1;fill-rule:nonzero;stroke:none"
         transform="matrix(0.35277776,0,0,-0.35277776,93.227488,64.602463)"
         clip-path="url(#clipPath7-2)" /></g></g></svg>
