<?xml version="1.0" encoding="UTF-8" standalone="no"?>
<!-- Created with Inkscape (http://www.inkscape.org/) -->

<svg
   width="161.96187mm"
   height="51.244629mm"
   viewBox="0 0 161.96187 51.244629"
   version="1.1"
   id="svg1"
   xml:space="preserve"
   inkscape:version="1.3.2 (091e20e, 2023-11-25, custom)"
   sodipodi:docname="Logo.svg"
   xmlns:inkscape="http://www.inkscape.org/namespaces/inkscape"
   xmlns:sodipodi="http://sodipodi.sourceforge.net/DTD/sodipodi-0.dtd"
   xmlns="http://www.w3.org/2000/svg"
   xmlns:svg="http://www.w3.org/2000/svg"><sodipodi:namedview
     id="namedview1"
     pagecolor="#ffffff"
     bordercolor="#000000"
     borderopacity="0.25"
     inkscape:showpageshadow="2"
     inkscape:pageopacity="0.0"
     inkscape:pagecheckerboard="0"
     inkscape:deskcolor="#d1d1d1"
     inkscape:document-units="mm"
     inkscape:zoom="0.71713664"
     inkscape:cx="318.62826"
     inkscape:cy="96.91319"
     inkscape:window-width="1309"
     inkscape:window-height="923"
     inkscape:window-x="129"
     inkscape:window-y="34"
     inkscape:window-maximized="0"
     inkscape:current-layer="layer1" /><defs
     id="defs1" /><g
     inkscape:label="Calque 1"
     inkscape:groupmode="layer"
     id="layer1"
     transform="translate(-20.663158,-122.87764)"><path
       d="m 20.75915,167.04871 c -0.362883,-0.64914 0.330739,-1.00752 1.613837,-0.83384 1.749348,0.23679 10.910736,-1.14599 14.266112,-2.15311 0.356577,-0.10701 1.231921,-0.37038 1.945221,-0.5851 0.713276,-0.21483 1.573664,-0.45509 1.911988,-0.53397 0.973537,-0.22699 0.969946,-0.5574 -0.008,-0.73767 -0.952409,-0.17552 -1.512419,-0.56329 -0.912649,-0.63192 0.196411,-0.0225 1.570689,-0.66889 3.053968,-1.4365 1.483243,-0.7676 3.356407,-1.70797 4.16259,-2.08973 1.422636,-0.67372 1.43841,-0.69285 0.537015,-0.65153 -2.561967,0.11745 -4.640971,-0.19239 -2.618387,-0.39018 0.717402,-0.0702 2.57817,-1.00448 4.298771,-2.15829 0.758741,-0.50889 2.143479,-1.33219 3.077141,-1.82958 l 1.697622,-0.90431 -1.298117,-0.0397 c -1.641508,-0.0502 -1.60915,-0.14731 0.395205,-1.18602 0.902766,-0.46785 3.028244,-1.56921 4.723281,-2.44744 1.764808,-0.91442 2.784487,-1.57111 2.385962,-1.53662 -4.375387,0.37869 -4.090052,-0.0692 1.809525,-2.84106 1.722604,-0.80933 4.508583,-1.55872 4.870089,-1.31004 0.134115,0.0923 0.263953,0.0533 0.288519,-0.0867 0.03081,-0.1753 -0.521643,-0.29305 -1.775978,-0.37853 -3.255188,-0.22184 0.618195,-2.30007 5.307452,-2.8475 0.875905,-0.10228 1.201921,-0.15138 3.105287,-0.46765 l 0.94892,-0.15768 -0.868058,-0.30279 c -0.477438,-0.16653 -1.303031,-0.38322 -1.83467,-0.48153 -1.122476,-0.20758 -1.197749,-0.67834 -0.145189,-0.90817 0.393785,-0.0859 2.12433,-0.4791 3.84553,-0.87363 1.721201,-0.39453 3.394505,-0.67596 3.718102,-0.62543 0.323558,0.0505 0.604839,-0.002 0.625063,-0.11752 0.02027,-0.11513 0.587597,-0.19517 1.260844,-0.17782 1.709471,0.044 1.338096,-0.29545 -0.920763,-0.84164 -3.870704,-0.9359 0.355509,-2.08313 8.375689,-2.27357 0.867033,-0.0206 0.829047,-0.0513 -0.605172,-0.48834 -1.548816,-0.47204 -2.093816,-1.19243 -0.747669,-0.98833 0.37016,0.0562 1.504991,-0.0797 2.521856,-0.30182 2.153428,-0.47042 4.93706,-0.79427 6.570539,-0.76437 1.592243,0.0291 1.484349,-0.24755 -0.384189,-0.98519 -3.197601,-1.26232 3.146644,-2.68495 8.394773,-1.88248 1.77584,0.27149 2.2772,-0.0184 0.92746,-0.5362 -0.61886,-0.23741 -1.29319,-0.45848 -1.49855,-0.49123 -0.42666,-0.0681 -0.43726,-0.45044 -0.0157,-0.57434 0.15486,-0.0455 1.01648,-0.0341 1.91477,0.0254 0.89827,0.0595 2.60394,0.0887 3.79047,0.0648 1.18643,-0.0238 3.07748,0.11624 4.20246,0.3113 l 2.04523,0.35464 -1.10743,-0.88611 c -1.41966,-1.13595 -1.36282,-1.2894 0.37177,-1.00335 0.77966,0.12851 2.9233,0.37941 4.76356,0.55744 2.35292,0.22758 3.81251,0.48024 4.91735,0.85122 2.7281,0.91601 2.87815,0.95402 2.91598,0.7386 0.0201,-0.116 -0.40445,-0.84463 -0.94396,-1.61925 -1.2177,-1.74828 -0.10031,-2.36866 1.57773,-0.87604 0.27797,0.24724 1.1014,0.55049 6.01735,2.21606 0.95645,0.32406 2.19165,0.76557 2.74491,0.98113 1.54958,0.60376 3.52995,1.30584 4.33723,1.5377 4.9848,1.43143 11.1463,3.74809 15.41002,5.79407 4.2734,2.05054 3.62514,1.81581 7.45527,2.69925 1.66883,0.38492 4.9112,0.41243 7.65812,0.065 1.0713,-0.13554 2.72033,-0.31723 3.66443,-0.40381 0.9441,-0.0866 2.54329,-0.32173 3.55395,-0.52261 1.01047,-0.20094 2.22741,-0.37003 2.70432,-0.37586 l 0.86707,-0.0106 -0.58839,1.44155 c -0.69381,1.6998 -0.67771,1.68981 -3.30501,2.04777 -11.89243,1.62009 -11.95061,1.63238 -14.96084,3.1977 -3.54563,1.84354 -5.11415,3.65489 -6.79087,7.84247 -0.86268,2.15449 -3.63197,7.24183 -4.49582,8.25901 -0.29178,0.34355 -1.00911,1.23968 -1.59407,1.99138 -1.85282,2.38105 -2.45082,2.65469 -2.85109,1.30519 -0.25041,-0.84465 -1.03803,-0.65127 -2.04314,0.50169 -4.34733,4.98641 -7.54457,6.93405 -7.08471,4.31521 0.23899,-1.36068 -0.0881,-1.48318 -1.17319,-0.43971 -1.07995,1.03835 -7.9004,4.94452 -8.47648,4.85462 -0.40452,-0.0632 -0.10501,-1.96101 0.46341,-2.93571 0.55787,-0.95674 0.44177,-0.91566 -1.38994,0.49208 -1.96353,1.50897 -3.19752,2.13573 -6.1312,3.11388 -1.25577,0.41863 -2.63793,0.90477 -3.07152,1.08012 -1.47858,0.59805 -1.80435,0.0172 -0.71937,-1.28287 l 0.72227,-0.86545 -1.71014,0.64875 c -0.94055,0.35685 -2.43033,0.81561 -3.31057,1.01958 -0.88027,0.20396 -2.25826,0.57546 -3.0622,0.8256 -1.65967,0.51612 -4.21609,0.62233 -3.49615,0.14481 0.22893,-0.15185 0.6217,-0.69481 0.87277,-1.2066 l 0.45654,-0.93053 -1.49879,0.39995 c -0.82431,0.22002 -2.60216,0.78124 -3.95078,1.24737 -4.921063,1.701 -6.549703,1.5019 -4.536432,-0.55458 0.220032,-0.22473 -1.705157,0.097 -5.13611,0.85805 -6.265507,1.39062 -6.871202,1.3965 -5.747837,0.0561 0.853937,-1.01871 0.857205,-1.01495 -0.55729,-0.64312 -0.936741,0.24628 -6.189199,0.9299 -8.941375,1.16382 -1.493642,0.12693 -1.713117,-0.21358 -0.679399,-1.05349 0.867621,-0.70514 0.63872,-0.91023 -0.541144,-0.48495 -3.176793,1.14511 -10.056302,0.94908 -8.360431,-0.23812 l 0.769266,-0.53859 -0.752749,0.0593 c -0.413983,0.0327 -1.420374,0.20304 -2.236318,0.37869 -4.127165,0.88835 -8.349253,0.46487 -6.968018,-0.69889 l 0.538732,-0.45388 -1.47157,0.24087 c -1.306676,0.21379 -6.302677,0.5503 -7.973444,0.53693 -0.786613,-0.006 -0.967771,-0.54463 -0.383975,-1.14099 0.370723,-0.37867 0.369808,-0.446 -0.0053,-0.39656 -4.0599,0.53504 -7.939167,0.52643 -8.832473,-0.0196 l -0.612449,-0.37434 0.804357,-0.48158 c 0.672649,-0.40284 0.709104,-0.47074 0.222659,-0.41465 -0.853243,0.0984 -8.834289,-0.0913 -12.781593,-0.30382 -3.929079,-0.21139 -8.280355,-0.83358 -8.493219,-1.21433 z m 8.998351,0.35268 c 2.336646,0.16347 6.427831,0.16579 9.364951,0.005 1.705261,-0.0932 3.70648,-0.0799 4.447504,0.0295 1.488954,0.21978 2.252471,0.092 2.012718,-0.33693 -0.09761,-0.17461 -0.02806,-0.19189 0.184302,-0.0457 0.214318,0.14746 0.830102,-0.022 1.657247,-0.45596 0.723928,-0.37984 1.397156,-0.60417 1.496072,-0.49856 0.260653,0.27837 -1.626111,1.29039 -2.962868,1.58919 -1.004106,0.22446 -3.360972,1.59168 -2.874631,1.66759 0.605323,0.0945 3.479496,-0.28142 3.799022,-0.49688 0.210509,-0.14193 0.440642,-0.19619 0.51142,-0.12058 0.07074,0.0756 0.624004,0.0601 1.229407,-0.0343 1.054375,-0.16451 1.744199,-0.42605 4.597663,-1.7433 1.820294,-0.84037 1.524525,-0.29595 -0.335005,0.61667 -1.531498,0.75161 -1.534898,0.75587 -0.591309,0.74434 1.184003,-0.0145 1.188949,0.63054 0.01287,1.67944 -0.844556,0.75322 -0.709196,0.85514 0.700156,0.52717 0.528273,-0.12292 1.167933,-0.22454 1.421514,-0.22581 0.253587,-9.7e-4 1.462198,-0.19524 2.685858,-0.43106 1.223659,-0.23584 2.414797,-0.42409 2.646973,-0.41837 0.232186,0.005 0.58536,-0.0776 0.784861,-0.18516 0.857142,-0.46213 1.185341,-0.0918 0.803411,0.90647 -0.557465,1.45726 3.504391,1.22757 8.25758,-0.46685 l 0.923281,-0.32916 0.377849,0.63182 c 0.241529,0.40385 0.269428,0.8366 0.07733,1.19941 -0.502946,0.94991 5.353459,0.21807 7.868741,-0.98337 1.479689,-0.70673 2.710494,0.6964 1.441657,1.64352 -0.943012,0.70392 -1.008837,1.00547 -0.211874,0.97099 0.340348,-0.0143 0.635941,-0.12409 0.656822,-0.24305 0.02091,-0.11896 0.135554,-0.14913 0.254807,-0.067 0.316054,0.21745 4.483796,-0.70875 8.158903,-1.81316 2.247279,-0.67541 2.922164,0.17395 1.158968,1.45856 -1.138449,0.8294 -1.399057,1.27917 -0.520832,0.89885 0.31989,-0.1385 1.372842,-0.43048 2.340146,-0.64815 2.55276,-0.57527 7.033803,-1.85066 7.28274,-2.07263 0.383119,-0.34171 1.161435,-0.0768 0.884625,0.30114 -0.2143,0.29261 -0.17332,0.3123 0.25973,0.12488 0.87841,-0.38021 0.89451,0.1033 0.0354,1.06151 -0.62354,0.6953 -0.711069,0.90238 -0.36184,0.85634 0.25332,-0.0335 0.47689,-0.15273 0.4966,-0.26563 0.0196,-0.11274 0.21936,-0.17635 0.44346,-0.14139 0.51083,0.0798 5.9829,-1.68568 6.85617,-2.21191 0.71139,-0.42872 1.77393,-0.3849 1.7087,0.0705 -0.0237,0.1599 0.12565,0.13073 0.3338,-0.0662 0.20635,-0.19477 0.50299,-0.33413 0.65922,-0.30977 0.41564,0.0649 0.23631,0.68251 -0.34619,1.19226 -0.27857,0.24378 -0.64254,0.66936 -0.80884,0.94571 l -0.30233,0.50249 1.40219,-0.39043 c 0.77122,-0.21469 1.7611,-0.46669 2.19972,-0.56008 1.52258,-0.32398 4.72243,-1.51008 5.69532,-2.1111 l 0.97815,-0.60426 0.50367,0.57731 c 0.30788,0.35294 0.40761,0.74352 0.25648,1.00501 -0.13588,0.23523 -0.36799,0.63545 -0.51568,0.88942 -0.23901,0.41096 1.48826,-0.0728 2.78079,-0.77849 0.0934,-0.0509 0.72487,-0.30276 1.40332,-0.55936 0.6784,-0.25663 1.25973,-0.61629 1.29186,-0.79923 0.0323,-0.18285 0.17898,-0.31374 0.32635,-0.29074 0.66605,0.10394 7.55962,-6.79034 9.37848,-9.37917 0.49409,-0.7034 1.00549,-1.26219 1.13637,-1.24177 0.60186,0.0939 -2.2802,3.85546 -4.92208,6.42399 -0.80463,0.78229 -1.87555,1.83545 -2.37984,2.34032 l -0.91691,0.91803 1.27581,-0.81054 c 1.7403,-1.10569 2.2547,-0.71213 1.60529,1.22834 l -0.44944,1.34305 1.79056,-0.80812 c 1.73404,-0.78257 3.13603,-1.57289 2.86521,-1.61514 -0.0727,-0.0113 0.21245,-0.223 0.63375,-0.47036 0.42131,-0.24735 1.00962,-0.71261 1.30738,-1.03396 2.19047,-2.36382 3.14221,-2.14787 3.30016,0.74918 0.0373,0.67877 4.86526,-4.06173 5.953,-5.84458 0.28508,-0.46734 0.75082,-0.84928 1.0515,-0.86229 0.29682,-0.0128 0.61362,-0.18685 0.70414,-0.3861 0.13605,-0.3002 0.28352,-0.23662 0.85443,0.3684 l 0.68998,0.73119 0.80142,-0.92017 c 2.34049,-2.68726 4.14758,-5.71106 5.07305,-8.48861 1.33865,-4.01725 3.36996,-6.69013 6.33805,-8.33949 0.93577,-0.52008 2.12505,-1.20307 2.64286,-1.51776 1.06722,-0.64866 3.68136,-1.39374 6.71123,-1.91257 1.13185,-0.19392 2.48544,-0.4265 3.00798,-0.51694 1.24046,-0.21464 5.23823,-0.48351 5.82609,-0.39176 0.3053,0.0477 0.55518,-0.20835 0.749,-0.76738 0.35651,-1.02824 0.38615,-0.9892 -0.58428,-0.76943 -1.89552,0.42931 -8.00225,1.25685 -8.59366,1.16456 -0.35567,-0.0555 -1.2174,0.032 -1.91498,0.19445 -2.38429,0.55525 -8.14901,-0.53019 -10.90604,-2.05346 -2.71707,-1.50121 -4.27141,-2.24284 -6.30626,-3.00876 -1.11124,-0.41831 -3.11883,-1.19417 -4.4614,-1.72418 -1.34251,-0.52999 -3.03683,-1.11126 -3.76531,-1.29176 -0.72832,-0.18046 -2.43131,-0.71227 -3.78461,-1.18182 -3.55447,-1.23335 -6.98444,-2.34936 -7.8976,-2.56965 -0.43564,-0.10508 -1.17182,-0.41059 -1.63598,-0.67889 -0.46414,-0.2683 -1.38487,-0.64604 -2.04599,-0.8394 l -1.20205,-0.35156 0.65455,1.12831 c 0.36,0.62057 0.85983,1.37941 1.11071,1.68631 0.81953,1.00246 0.23632,1.02511 -1.76092,0.0684 -2.38979,-1.1448 -11.25238,-2.79325 -11.48947,-2.13701 -0.0743,0.20554 0.98419,1.00016 2.14204,1.60798 0.34903,0.18324 0.57859,0.45001 0.51002,0.59279 -0.0686,0.14279 0.19703,0.39517 0.59019,0.56083 0.50063,0.21096 0.31738,0.20668 -0.61163,-0.0143 -0.72953,-0.17354 -1.77511,-0.38222 -2.3235,-0.46376 -0.54841,-0.0816 -0.90836,-0.2274 -0.79988,-0.32412 0.4198,-0.37438 -3.56075,-1.03171 -6.75278,-1.11512 -2.17004,-0.0567 -3.28691,0.20912 -1.8324,0.43613 1.00117,0.15625 2.56804,1.05803 2.50104,1.43943 -0.0503,0.28631 -0.45744,0.2947 -2.08028,0.0429 -1.76964,-0.27469 -3.02705,-0.35996 -6.90366,-0.46852 -0.504203,-0.0141 -1.475092,0.007 -2.157577,0.0459 -0.682484,0.0394 -1.425969,0.0699 -1.652206,0.0679 -0.830059,-0.008 -0.717766,0.19058 0.47093,0.83055 1.842363,0.99188 2.40273,1.53321 1.793938,1.73297 -0.268823,0.0882 -0.361284,0.18192 -0.205444,0.20822 0.998116,0.1685 -0.665696,0.35729 -2.158319,0.2449 -0.98989,-0.0746 -1.957973,-0.07 -2.151313,0.0102 -0.193334,0.0801 -0.801259,0.1492 -1.350916,0.15358 -0.54967,0.004 -1.017158,0.10905 -1.03887,0.23271 -0.02173,0.12365 -0.15915,0.14249 -0.305406,0.0419 -0.146263,-0.10063 -0.72706,-0.0791 -1.290635,0.048 l -1.024727,0.23089 0.952901,0.48383 c 1.220164,0.61953 1.321201,0.73953 0.761306,0.90416 -0.267596,0.0787 -0.664808,0.009 -0.952858,-0.167 -0.388125,-0.2372 -0.469839,-0.22157 -0.381332,0.0728 0.126932,0.42218 0.256196,0.40347 -3.50579,0.50764 -1.527444,0.0423 -3.193979,0.16543 -3.703477,0.2736 -0.509403,0.10818 -1.107275,0.16844 -1.328594,0.13391 -0.975398,-0.15223 -0.325865,0.36645 1.255835,1.00284 2.846175,1.14515 2.643859,1.36893 -1.528023,1.69016 -1.45525,0.11205 -3.221737,0.33526 -3.925622,0.49598 -0.703796,0.16072 -1.415149,0.27698 -1.580754,0.25848 -1.377712,-0.15473 -1.769562,0.66394 -0.49594,1.03617 0.694774,0.20304 1.534961,0.91596 1.475893,1.25234 -0.02338,0.13331 -1.280409,0.406 -2.793327,0.60601 -6.463193,0.85445 -7.939473,1.35818 -5.247592,1.79037 3.387618,0.54396 2.813382,0.97993 -2.912099,2.21145 -3.387063,0.72853 -4.815873,1.15986 -5.48331,1.65541 -0.799783,0.59375 -0.830571,0.65811 -0.270004,0.56449 1.336713,-0.22322 3.511386,0.11335 3.437858,0.53206 -0.07584,0.43183 -1.346008,1.0685 -1.963606,0.98423 -0.831312,-0.11342 -6.483111,2.52719 -6.849978,3.20062 -0.269333,0.49407 -0.108138,0.53593 0.971785,0.25226 0.815131,-0.21412 1.841484,-0.19629 1.431313,0.0248 -0.122741,0.0662 -0.09359,0.28765 0.06482,0.49217 0.299054,0.3861 -1.323853,1.32471 -2.504662,1.44857 -0.63138,0.0662 -5.811002,3.24355 -5.620136,3.44739 0.07458,0.0796 0.316234,0.0472 0.536941,-0.0716 0.568212,-0.30634 1.488903,-0.11414 1.416902,0.29585 -0.07538,0.42932 -0.273163,0.41832 2.391103,0.13278 2.752028,-0.29494 8.43296,-0.51996 8.600943,-0.34064 0.06706,0.0716 -0.690555,0.17397 -1.683599,0.22743 -4.814945,0.25926 -6.582295,0.38741 -7.995007,0.57954 -0.844382,0.11489 -1.590489,0.14986 -1.658038,0.0777 -0.108336,-0.11564 -0.667426,0.17954 -2.199808,1.16147 -0.240838,0.15433 -0.420775,0.35483 -0.399897,0.44558 0.02094,0.0907 -0.50031,0.24217 -1.158218,0.33654 -0.657911,0.0944 -1.68343,0.47507 -2.278895,0.84596 -0.595463,0.37091 -1.266101,0.64575 -1.490319,0.61075 -0.224194,-0.0352 -0.436045,0.0982 -0.470773,0.29596 -0.06318,0.35979 -0.01772,0.3659 1.924897,0.25906 1.185876,-0.0652 0.709934,0.67854 -1.058057,1.65343 -0.888241,0.48979 -1.739371,0.87384 -1.891379,0.85346 -0.152212,-0.0192 -0.513512,0.071 -0.803351,0.20299 -1.209867,0.5512 -10.12767,2.29368 -13.144153,2.56843 -2.454011,0.22342 -2.604148,0.57254 -0.271512,0.63131 0.887891,0.0223 2.092106,0.074 2.676058,0.11491 z m 23.597584,2.0177 c 0.01179,-0.067 0.878655,-0.67582 1.926451,-1.35309 1.047792,-0.67729 2.108013,-1.4106 2.356027,-1.62956 0.469022,-0.4141 0.931437,-0.47837 0.868632,-0.12071 -0.05443,0.30999 -4.554133,3.32148 -4.885377,3.26978 -0.157916,-0.0241 -0.27737,-0.0996 -0.265627,-0.16643 z m 2.733263,0.17323 c 0.02756,-0.15682 3.038854,-2.38358 3.527234,-2.6082 0.105241,-0.0484 0.793531,-0.4981 1.529496,-0.99928 1.509056,-1.02763 2.335737,-1.16501 1.097639,-0.1824 -2.5203,2.0002 -6.242501,4.29249 -6.154241,3.78988 z m 6.68013,0.43013 c 2.908146,-1.51429 6.116706,-3.03336 5.543441,-2.62454 -1.013159,0.72272 -5.016712,2.7568 -5.749107,2.92092 -0.49721,0.11152 -0.451497,0.0456 0.205627,-0.29661 z m -14.619213,-2.38682 c 0.442989,-0.14456 1.447476,-0.59135 2.232227,-0.99283 0.784755,-0.40148 1.516301,-0.63278 1.625648,-0.51403 0.297864,0.32347 -3.276178,1.98618 -4.019864,1.87011 -0.619989,-0.0968 -0.614054,-0.11006 0.161981,-0.36326 z m -9.845867,-1.68549 c 0.09429,-0.056 1.506555,-0.22925 3.138401,-0.38521 3.257735,-0.31139 8.839694,-1.37565 8.896011,-1.69637 0.01955,-0.11136 0.574302,-0.31958 1.23278,-0.4627 3.193161,-0.69404 4.932605,-1.22584 4.648869,-1.42112 -0.402296,-0.27679 0.488688,-0.70611 2.348292,-1.13148 0.778368,-0.17803 2.583681,-0.68261 4.011833,-1.12121 2.285322,-0.7019 5.37114,-1.26099 3.534012,-0.64034 -2.198989,0.74292 -5.817185,1.87049 -7.111821,2.21652 -1.994792,0.53305 -1.965307,0.66677 0.08548,0.38759 2.921131,-0.39765 5.491357,-1.18643 14.22283,-4.36501 0.872764,-0.31773 2.402566,-0.8586 3.399552,-1.20196 0.996981,-0.34336 1.826143,-0.70079 1.842559,-0.79426 0.01647,-0.0935 0.78282,-0.32667 1.703149,-0.51826 0.920305,-0.19158 1.975447,-0.49508 2.344754,-0.6745 0.369276,-0.17944 1.220521,-0.45278 1.891605,-0.60741 0.671115,-0.15463 1.466079,-0.42851 1.766615,-0.60857 0.300532,-0.18006 0.660617,-0.30955 0.800223,-0.28776 0.139597,0.0218 1.452307,-0.35696 2.917148,-0.84166 1.464843,-0.48469 2.787398,-0.86189 2.938987,-0.83824 0.151596,0.0237 0.666031,-0.0914 1.143154,-0.25564 0.477126,-0.16425 2.021072,-0.57229 3.430934,-0.90675 1.40987,-0.33445 3.363225,-0.83494 4.340755,-1.11219 6.09903,-1.72968 12.64882,-3.03989 21.50186,-4.30126 3.97363,-0.5661 7.67675,-1.11018 8.22965,-1.20896 0.55274,-0.0988 1.43043,-0.17865 1.95039,-0.17739 0.51991,0.001 0.95726,-0.0656 0.97183,-0.14849 0.0146,-0.083 0.37101,-0.11928 0.79211,-0.0807 0.42107,0.0385 1.15647,-0.0179 1.63417,-0.12547 1.54153,-0.34704 7.08352,-1.05549 9.96294,-1.27354 1.54052,-0.11668 5.3628,-0.44867 8.4938,-0.73779 5.28654,-0.48808 5.7352,-0.49326 6.28399,-0.0726 0.5672,0.43461 0.56682,0.4552 -0.008,0.50795 -0.33004,0.0302 -1.23828,0.14831 -2.01834,0.26238 -0.78003,0.11407 -1.96825,0.19191 -2.64053,0.17296 -1.11005,-0.0313 -8.28551,0.52341 -14.631,1.13106 l -2.49862,0.23924 -1.82839,1.50738 c -2.50542,2.06556 -6.13315,6.97675 -8.59489,11.63543 -1.95455,3.69902 -5.56007,7.38989 -9.19017,9.40753 -1.97398,1.09719 -2.02466,0.70997 -0.0787,-0.6018 2.26895,-1.52957 2.11539,-1.41365 3.43044,-2.5891 2.92345,-2.61288 3.85442,-3.84043 5.51721,-7.27435 0.4379,-0.90436 1.03977,-1.92461 1.33745,-2.26725 0.29768,-0.34263 1.14154,-1.59038 1.87529,-2.77294 1.52727,-2.46129 3.36582,-4.53996 5.1642,-5.83864 1.62213,-1.17136 1.68168,-1.15862 -2.67646,-0.57267 -2.06472,0.27761 -4.45943,0.58687 -5.32149,0.68724 -1.76509,0.20549 -6.35582,0.76154 -7.95731,0.96374 -2.60518,0.32898 -7.20686,4.89153 -9.87255,9.78851 -0.58568,1.07584 -1.3626,2.33406 -1.72656,2.79616 -0.36393,0.46198 -1.11019,1.52132 -1.65834,2.35405 -1.26294,1.91875 -4.88834,5.27325 -7.36741,6.81682 -1.518815,0.94573 -1.198355,0.29665 0.43466,-0.88034 2.24124,-1.61541 6.45899,-5.87603 6.59748,-6.66458 0.0325,-0.18443 0.39802,-0.74689 0.81253,-1.2499 0.41451,-0.503 1.29535,-1.89112 1.95741,-3.08484 0.66209,-1.19373 1.54588,-2.58114 1.96395,-3.08308 0.41808,-0.50194 1.12346,-1.39797 1.56739,-1.99081 0.67546,-0.90195 3.10744,-3.14407 4.48277,-4.13298 0.26431,-0.19004 0.0219,-0.20592 -0.88656,-0.058 -0.68752,0.11182 -1.46149,0.22722 -1.71994,0.2564 -0.44344,0.0501 -2.58621,0.42465 -5.06886,0.88619 -1.4697,0.27321 -9.17815,2.23611 -10.75099,2.73768 -1.038853,0.33129 -3.439894,2.26566 -4.796498,3.86418 -2.264276,2.66847 -2.864163,3.4391 -3.499383,4.49598 -2.327575,3.87272 -8.89098,9.81318 -10.555169,9.55346 -0.245682,-0.0389 0.191046,-0.42328 1.028118,-0.90603 2.654716,-1.53104 8.663252,-7.78519 8.928037,-9.29302 0.110689,-0.63028 4.700688,-5.65567 5.873459,-6.43071 1.042517,-0.68892 0.854487,-0.76812 -0.752495,-0.31694 -0.944673,0.26522 -2.366775,0.63804 -3.160219,0.82845 -0.793443,0.1904 -1.667976,0.44899 -1.943359,0.57461 -0.275402,0.1256 -1.076665,0.36045 -1.780548,0.52187 -0.893665,0.20492 -1.770312,0.71206 -2.905308,1.68076 -3.03739,2.59233 -5.82886,4.78891 -5.938086,4.67226 -0.140783,-0.15037 1.396215,-1.54709 4.033449,-3.66534 2.131743,-1.71228 2.483922,-2.22672 1.088035,-1.58948 -0.424753,0.19392 -0.894151,0.33355 -1.043065,0.31031 -0.148931,-0.0232 -0.211871,0.0631 -0.139839,0.19199 0.07202,0.12884 -0.128737,0.13819 -0.446132,0.0208 -0.319501,-0.1182 -0.596924,-0.10052 -0.621521,0.0395 -0.0244,0.13917 -0.641584,0.44606 -1.371386,0.68199 -0.78814,0.25477 -1.684609,0.81043 -2.207747,1.36839 -1.070618,1.14188 -3.076638,2.68808 -3.248864,2.50399 -0.06879,-0.0735 0.430401,-0.61559 1.109327,-1.20469 1.859217,-1.61318 2.268794,-2.06781 1.73822,-1.92935 -1.094231,0.28555 -2.574762,0.93546 -2.611822,1.14652 -0.02247,0.12824 -0.444857,0.52515 -0.938587,0.88207 -0.493691,0.35688 -1.522943,1.48907 -2.287257,2.51597 -2.572384,3.45622 -5.798314,6.51564 -8.153222,7.73274 -1.625434,0.84 -1.078256,0.0818 1.077451,-1.49283 2.429068,-1.77444 3.700561,-3.05075 5.565722,-5.58658 0.686053,-0.93282 1.737809,-2.12267 2.337254,-2.644 1.40413,-1.22136 1.396586,-1.33004 -0.04581,-0.66175 -0.649865,0.30109 -1.297291,0.52938 -1.438748,0.5073 -0.141441,-0.0221 -0.717367,0.44005 -1.27982,1.02696 -1.084661,1.13177 -3.079113,2.60444 -3.262285,2.40883 -0.0601,-0.0642 0.550017,-0.65283 1.355792,-1.30813 0.805772,-0.65529 1.47719,-1.26062 1.492039,-1.34517 0.05715,-0.32549 -5.141431,1.55702 -5.714542,2.06937 -0.630143,0.56335 -4.415575,2.61268 -4.734065,2.56298 -0.174293,-0.0271 0.586562,-0.54236 1.690752,-1.1448 1.104195,-0.60247 1.949477,-1.15746 1.878429,-1.23335 -0.228247,-0.24376 -2.44545,0.62549 -4.276744,1.6766 -0.978202,0.56152 -1.921557,0.99864 -2.096328,0.97136 -0.174776,-0.0272 0.355884,-0.42056 1.179223,-0.87398 l 1.496985,-0.8244 -1.003633,0.12777 c -0.552013,0.0703 -1.018872,0.21451 -1.037476,0.32056 -0.0186,0.106 -0.149558,0.11314 -0.290998,0.0158 -0.302088,-0.20785 -2.8112,0.37411 -5.751799,1.334 -2.486536,0.81173 -7.730761,1.86889 -10.47569,2.11184 -2.089803,0.18493 -4.341444,0.20407 -4.055517,0.0344 z m 28.119409,3.54698 c 1.629292,-0.60026 5.564515,-2.8602 6.854798,-3.93684 0.54423,-0.45406 1.019752,-0.70059 1.056711,-0.54788 0.227268,0.93884 -7.340369,5.24521 -8.813591,5.01528 -0.208153,-0.0322 0.197799,-0.27133 0.902053,-0.53078 z m 5.713502,1.43944 c 0.05285,-0.24549 1.557727,-1.14457 7.613394,-4.54862 4.966565,-2.79205 5.535974,-2.7872 0.887823,0.007 -4.074139,2.44964 -8.567714,4.84993 -8.501406,4.54135 z m -11.156692,-2.66857 c 0.490196,-0.24226 1.588437,-1.02587 2.440553,-1.74137 1.326028,-1.11347 2.07378,-1.53217 2.001537,-1.12077 -0.141652,0.80667 -4.038665,3.50478 -4.873948,3.37442 -0.322899,-0.0503 -0.194594,-0.2025 0.431961,-0.51214 z m 20.390207,2.49723 c 0.008,-0.0458 1.315012,-0.99645 2.90436,-2.11257 1.589355,-1.11612 3.420257,-2.44832 4.068832,-2.96031 0.648428,-0.5121 1.244475,-0.86113 1.324543,-0.7756 0.08006,0.0855 -0.542713,0.71625 -1.383934,1.40161 -2.945054,2.39949 -7.013562,5.01627 -6.913566,4.44683 z m -7.332958,-3.16442 c 1.421042,-0.80658 2.994527,-1.82543 3.496649,-2.26411 0.964692,-0.84288 1.615463,-1.15923 1.543665,-0.75038 -0.135108,0.76936 -6.321789,4.68431 -7.188637,4.54903 -0.239538,-0.037 0.727233,-0.72786 2.148272,-1.53443 z m -30.521611,-3.34944 c 0.02073,-0.11773 0.351549,-0.2314 0.735289,-0.25263 1.314269,-0.0726 3.067793,-0.42032 3.101997,-0.615 0.01885,-0.10709 0.336229,-0.14416 0.705406,-0.0824 0.664715,0.11121 0.664797,0.11483 0.0098,0.38163 -1.489914,0.60674 -4.628042,0.9986 -4.552508,0.56845 z m 34.632247,4.9764 c 0.533696,-0.27338 1.006257,-0.39319 1.050161,-0.26624 0.0888,0.25671 -1.241727,0.88482 -1.717168,0.81062 -0.166822,-0.0263 0.133316,-0.27102 0.667,-0.54435 z m 8.048442,0.54868 c 0.857015,-0.48229 2.773952,-1.69523 4.25977,-2.69536 3.344087,-2.25094 3.316068,-2.23442 3.259479,-1.91219 -0.105024,0.59809 -8.102837,5.63657 -8.779666,5.53095 -0.163765,-0.0258 0.403329,-0.4411 1.260352,-0.92339 z m 7.76975,0.0336 c 0.707151,-0.5057 2.258602,-1.64065 3.447633,-2.52204 2.239466,-1.66015 3.160623,-1.99209 1.389442,-0.50068 -1.604969,1.35149 -5.537345,4.03353 -5.843406,3.98578 -0.153663,-0.0236 0.299309,-0.45732 1.00646,-0.96299 z m -48.816317,-7.09557 c 0.351641,-0.13554 0.801301,-0.22114 0.999253,-0.19024 0.197935,0.031 1.362519,-0.10569 2.587929,-0.30352 2.257793,-0.36452 3.259227,-0.39169 2.656429,-0.0721 -0.532082,0.2821 -5.625962,1.02404 -6.277509,0.91431 -0.596559,-0.10054 -0.596066,-0.10559 0.03379,-0.34842 z m 51.290023,7.93082 c 0.01872,-0.10662 0.352788,-0.34637 0.742362,-0.53262 0.748386,-0.35784 2.912438,-1.90073 4.686298,-3.34109 1.31865,-1.0708 1.52281,-0.65355 0.26002,0.53137 -1.88066,1.76473 -5.817689,4.0781 -5.6885,3.3424 z m -41.064623,-6.97597 c 0.413867,-0.22723 0.784616,-0.32496 0.823896,-0.21718 0.10438,0.28651 -0.708502,0.76576 -1.175335,0.6929 -0.258215,-0.0403 -0.133045,-0.20972 0.351443,-0.47571 z m 35.421089,5.89347 c 0.0187,-0.10088 0.457262,-0.43553 0.975073,-0.7438 2.438198,-1.45155 7.613219,-5.221 8.785391,-6.39907 0.9466,-0.95149 1.05865,-0.55825 0.12309,0.43209 -0.790912,0.83722 -3.727429,3.2269 -5.018171,4.08387 -3.335128,2.21387 -4.949317,3.0855 -4.86516,2.62677 z m -45.070162,-8.28366 c -0.07943,-0.1421 0.137931,-0.21429 0.482975,-0.16044 0.345058,0.0538 2.08314,-0.0463 3.862211,-0.22256 3.210059,-0.31799 4.601774,-0.33048 3.495848,-0.0313 -2.2459,0.60735 -7.575712,0.88898 -7.841198,0.41432 z m 54.844156,8.56362 c 0.02,-0.116 0.2331,-0.26515 0.47275,-0.33149 0.76247,-0.2111 4.87088,-3.14802 6.17292,-4.41298 1.58475,-1.53956 1.80635,-1.03173 0.24736,0.56671 -1.88689,1.93461 -7.04827,5.06293 -6.89283,4.17766 z m 3.0678,0.0167 c 0.0204,-0.11884 0.17969,-0.25764 0.35296,-0.30859 0.51002,-0.14958 8.24781,-6.10016 10.14076,-7.79782 0.95619,-0.85764 1.7867,-1.50789 1.84557,-1.44502 0.31136,0.33254 -3.25213,3.56392 -6.65723,6.03672 -1.16028,0.84263 -2.42735,1.76753 -2.81565,2.05534 -1.959,1.45192 -2.95409,1.95859 -2.86645,1.45944 z m 6.20432,-2.288 c 3.18995,-2.22064 5.49184,-3.99837 8.09825,-6.25401 0.3692,-0.31955 0.42434,-0.31869 0.38281,0.006 -0.1262,0.98373 -11.11774,9.07881 -12.11595,8.92301 -0.0933,-0.0142 1.54234,-1.21834 3.63499,-2.67513 z m 2.26607,3.01559 c 0.0471,-0.26745 5.12301,-4.30597 5.24658,-4.174 0.12389,0.1323 -3.16834,3.12197 -4.40623,4.00132 -0.44869,0.31871 -0.88139,0.40767 -0.84007,0.17289 z m 0.3512,-2.37127 c 1.44347,-0.96442 3.05721,-2.25924 6.15635,-4.93978 1.05087,-0.90888 1.9646,-1.59496 2.03047,-1.52459 0.293,0.31296 -5.6099,5.42399 -7.77201,6.72952 -1.71585,1.03601 -2.04637,0.82472 -0.41495,-0.26529 z m 9.3758,1.58116 c 0.45535,-0.38881 3.32117,-3.07198 4.91129,-4.5981 0.29056,-0.27888 1.63894,-1.63994 2.9964,-3.02456 1.35748,-1.38464 2.52994,-2.45144 2.60548,-2.37073 0.45247,0.48322 -9.95265,10.59876 -10.77937,10.47954 -0.14257,-0.0203 -0.0223,-0.23927 0.26631,-0.48598 z M 51.624089,158.55635 c 0.332262,-0.18955 7.190693,-0.65496 7.878054,-0.53465 0.327623,0.0577 -0.921188,0.22603 -2.775358,0.37481 -3.723962,0.29887 -5.440905,0.35261 -5.102757,0.15987 z m 69.719301,9.0416 c 1.19363,-1.03616 1.71805,-1.53488 4.93166,-4.68973 2.03504,-1.99788 2.7303,-2.58769 2.87184,-2.43658 0.16136,0.17241 -2.99638,3.53292 -5.26576,5.6037 -2.86649,2.61575 -2.96626,2.6935 -3.37363,2.6299 -0.21835,-0.0345 0.12771,-0.49261 0.8361,-1.10749 z m -3.50486,0.0919 c 0.0395,-0.22776 1.56493,-1.27897 1.80163,-1.24203 0.31381,0.049 -0.15526,0.70306 -0.79854,1.11338 -0.49854,0.31804 -1.04867,0.38865 -1.00305,0.12869 z M 50.850385,156.05889 c 0.316454,-0.17061 13.676799,-1.07097 13.976129,-0.942 0.476114,0.20541 -12.572779,1.28628 -13.597434,1.12636 -0.307387,-0.048 -0.477792,-0.13094 -0.378691,-0.18438 z m 16.911326,2.1503 c 0.549318,-0.24278 1.365262,-0.5613 1.813198,-0.70781 0.44796,-0.14651 1.935097,-0.67641 3.30473,-1.17757 l 2.490284,-0.91119 -2.876488,-0.38685 c -4.746744,-0.63834 -9.39666,-0.97004 -11.775564,-0.83989 -1.233798,0.0675 -2.513963,0.0804 -2.844824,0.0288 -0.330861,-0.0516 -0.620771,0.0155 -0.644248,0.14918 -0.02342,0.13369 -0.183577,0.14613 -0.355793,0.0277 -1.501789,-1.03323 6.51733,-1.13287 13.815963,-0.17167 3.499492,0.46086 5.510907,0.62529 6.206037,0.50736 l 1.028197,-0.17455 -1.434067,-0.24305 c -0.918654,-0.15567 -1.349292,-0.31862 -1.198285,-0.45333 0.129688,-0.11565 0.926284,-0.0808 1.770235,0.0774 1.369618,0.25676 1.753705,0.2131 3.575521,-0.40672 2.184592,-0.74316 2.503268,-1.01274 1.442595,-1.22028 -0.367401,-0.0719 0.02826,-0.14279 0.879254,-0.15755 1.302561,-0.0226 2.995918,-0.46112 4.496342,-1.16445 0.202237,-0.0948 -0.02382,-0.19112 -0.571396,-0.24348 -2.168503,-0.20736 -2.456524,-0.48058 -0.342318,-0.32475 1.283779,0.0946 2.794645,0.0527 3.357655,-0.0931 3.102006,-0.80372 3.102148,-0.80415 0.335099,-1.19769 -1.315973,-0.18716 -2.523636,-0.38154 -2.68368,-0.43189 -0.630221,-0.19835 2.571124,-0.0235 4.349394,0.23752 1.499951,0.2202 3.729148,0.10247 3.781239,-0.19977 0.0049,-0.0283 -2.448708,-0.46614 -5.452478,-0.97293 -8.593435,-1.44986 -13.578616,-1.87005 -21.162743,-1.78371 -2.02075,0.023 -0.535912,-0.41216 1.78054,-0.52185 4.95209,-0.23443 6.010615,-0.14431 15.984685,1.36138 5.361004,0.80929 10.08618,1.44353 10.499987,1.40936 1.178805,-0.0971 3.169638,-0.81809 2.432063,-0.88073 -0.332806,-0.0283 -1.004174,-0.13962 -1.491924,-0.24743 l -0.886802,-0.19603 0.934331,-0.0746 c 0.513881,-0.041 1.402946,0.011 1.9757,0.11565 1.55202,0.28353 1.55383,0.28338 3.28637,-0.25874 l 1.60705,-0.50288 -2.04177,-0.61369 -2.04177,-0.61369 2.51647,0.50835 c 2.32649,0.46998 2.64583,0.47882 4.23002,0.11717 l 1.7135,-0.39121 -1.94581,-0.44039 c -2.97669,-0.67369 -2.66547,-0.89857 0.50421,-0.36432 2.70878,0.45657 3.89465,0.50297 3.9558,0.15479 0.0152,-0.0892 -0.5388,-0.27614 -1.23211,-0.41555 -0.69329,-0.13939 -1.71507,-0.41921 -2.27063,-0.62179 -0.687,-0.25051 -0.0602,-0.17782 1.96037,0.2272 2.95744,0.59286 7.04765,0.555 4.76307,-0.0441 -2.86269,-0.75066 -5.42199,-1.4748 -7.16732,-2.0279 -5.6142,-1.77925 -16.800606,-3.79547 -20.826612,-3.75375 -2.728062,0.0282 -3.214313,-0.272 -0.809624,-0.49993 2.481528,-0.23519 15.276076,1.69594 18.963216,2.8622 0.23998,0.0759 1.75011,0.5257 3.35576,0.99949 1.60569,0.47381 3.63051,1.07451 4.49961,1.3349 2.63114,0.78831 4.32892,0.95668 5.98842,0.59393 0.83295,-0.18212 2.19879,-0.43089 3.03513,-0.55277 l 1.52065,-0.22163 -3.31452,-0.92853 c -1.82307,-0.5107 -3.90557,-1.10472 -4.62769,-1.32002 -2.4589,-0.7331 0.37155,-0.20858 3.78165,0.70078 5.48348,1.46227 5.46228,1.45994 9.26883,1.01337 l 1.24756,-0.14637 -1.14737,-0.42415 c -2.01125,-0.74352 -5.60275,-1.85563 -6.38893,-1.97833 -0.4179,-0.0652 -0.74058,-0.22819 -0.71706,-0.36216 0.0491,-0.28014 1.43832,0.065 5.54924,1.37874 2.98117,0.9527 4.60023,1.28061 4.91909,0.99623 0.21702,-0.19355 -2.63296,-1.23395 -5.25193,-1.9172 -0.84783,-0.22119 -1.52492,-0.49684 -1.5046,-0.61251 0.0389,-0.22182 0.99811,0.0292 4.11023,1.07533 3.60909,1.21321 4.39003,1.33585 6.43443,1.01029 1.85519,-0.29537 1.8715,-0.3051 1.01771,-0.6047 -0.47727,-0.1675 -2.2616,-0.82644 -3.96528,-1.46432 -1.70358,-0.63788 -4.49125,-1.68106 -6.19497,-2.3182 -1.70369,-0.63715 -4.35381,-1.48063 -5.88897,-1.87438 -1.5352,-0.39375 -3.84838,-0.99236 -5.14016,-1.33022 -1.95082,-0.5102 -6.38289,-1.38409 -10.68477,-2.10675 -0.81073,-0.13624 -0.83585,-0.16615 -0.26751,-0.31871 1.25606,-0.33716 11.36044,1.57554 16.21314,3.06906 5.54195,1.70569 8.70352,2.81676 9.6128,3.37824 0.26458,0.16339 0.68411,0.32875 0.93226,0.36748 0.24818,0.0387 1.21853,0.40994 2.15639,0.82491 0.93787,0.41497 1.85375,0.71081 2.03529,0.65743 0.18155,-0.0534 0.3127,0.002 0.29145,0.12314 -0.0208,0.12117 0.37639,0.26252 0.88372,0.31425 0.50731,0.0517 0.97063,0.18031 1.02957,0.28576 0.0956,0.17104 1.61094,0.30338 1.87064,0.16338 0.0567,-0.0306 -1.30827,-0.73938 -3.03328,-1.57511 -1.72504,-0.83573 -3.01543,-1.5311 -2.86723,-1.54524 0.14804,-0.0143 1.63582,0.61415 3.30609,1.39621 3.45095,1.6158 4.19996,1.79342 5.87745,1.39365 0.65775,-0.15672 1.53266,-0.23243 1.94421,-0.16819 1.67864,0.26198 0.61938,-0.41361 -2.96766,-1.89275 -4.57685,-1.88738 -4.666,-1.92987 -3.19289,-1.52416 0.64126,0.17661 2.76821,0.99054 4.72662,1.80874 2.4084,1.00623 3.84187,1.48422 4.42947,1.47699 1.26203,-0.0154 1.11724,-0.27718 -0.47527,-0.85926 -1.99639,-0.72971 -7.50993,-3.119 -6.45994,-2.79938 0.48098,0.14638 2.61825,0.95929 4.74962,1.80644 l 3.87495,1.54027 2.33603,-0.18781 2.33602,-0.1878 -1.31534,-0.37867 c -3.33922,-0.96126 -8.5409,-3.12191 -7.98855,-3.31827 0.3685,-0.13104 0.35278,-0.15497 -0.0773,-0.11767 -0.29693,0.0258 -1.90536,-0.65131 -3.57429,-1.5046 -1.66891,-0.85326 -3.81643,-1.81945 -4.77234,-2.14709 l -1.73786,-0.59567 1.62708,0.35201 c 0.94479,0.20441 4.32077,1.51231 8.05043,3.11894 6.60578,2.84551 8.41613,3.48345 10.6274,3.7447 0.70319,0.0831 1.26027,0.25511 1.23796,0.38228 -0.0226,0.12711 -0.47102,0.16406 -0.99706,0.082 -0.64586,-0.1008 -0.87136,-0.0584 -0.69444,0.13053 0.29563,0.31575 2.2386,0.20513 2.66363,-0.15167 0.13882,-0.1165 0.6917,-0.11722 1.2286,-0.002 0.53692,0.11565 1.19608,0.13842 1.4649,0.0505 0.40073,-0.13105 0.37119,-0.17881 -0.16427,-0.26532 -1.26517,-0.2045 -7.55022,-2.56147 -9.8041,-3.67669 -2.00058,-0.98994 -1.71103,-1.08419 0.42414,-0.13812 3.38087,1.49814 9.21513,3.54814 10.80684,3.79728 0.98854,0.15474 1.50274,0.31975 1.30812,0.41978 -0.48574,0.24967 -5.69301,0.88738 -8.14369,0.99738 -1.19167,0.0535 -2.24469,0.14841 -2.34011,0.21094 -0.0953,0.0625 -0.86647,0.12534 -1.7134,0.13955 -3.44417,0.0578 -6.54921,0.31082 -7.36914,0.60036 -0.47795,0.16882 -1.15087,0.26297 -1.49534,0.2092 -0.34448,-0.0538 -0.64445,0.006 -0.66664,0.13177 -0.0226,0.12623 -0.23854,0.19858 -0.48084,0.16076 -0.58422,-0.0912 -4.2087,0.39578 -9.75754,1.31087 -1.38234,0.22797 -5.94358,0.71742 -6.7105,0.72005 -0.70164,0.002 -3.61727,0.53263 -3.82538,0.69556 -0.15587,0.12221 -2.95306,0.65251 -7.62366,1.44545 -2.54849,0.43261 -4.2643,0.81507 -5.65029,1.25958 -0.74813,0.2399 -1.48765,0.4163 -1.6434,0.39198 -0.15572,-0.0243 -0.46825,0.0783 -0.69449,0.228 -0.22625,0.14971 -1.5148,0.5057 -2.86345,0.79111 -1.34864,0.2854 -2.528418,0.56021 -2.621713,0.6107 -0.09333,0.0505 -0.599668,0.1797 -1.125197,0.2872 -0.525549,0.10749 -1.977562,0.50717 -3.226727,0.88824 -1.249165,0.38108 -3.435325,1.02685 -4.857986,1.4351 -3.521696,1.01042 -3.789627,1.09435 -4.314766,1.35035 -0.251878,0.1228 -0.585285,0.20342 -0.74089,0.17914 -0.155615,-0.0243 -4.250664,1.35276 -9.1001,3.05998 -8.084594,2.84646 -10.8556,3.70609 -8.29027,2.57213 z m 64.190429,9.54453 c 0.0223,-0.12455 0.18533,-0.30502 0.36323,-0.40095 0.17791,-0.0958 1.35212,-1.28681 2.60947,-2.64653 2.54809,-2.75547 3.01908,-2.65933 0.6113,0.12477 -0.84768,0.98016 -1.55419,1.85585 -1.57002,1.94592 -0.0155,0.0903 -0.48437,0.3977 -1.04126,0.68355 -0.55688,0.28584 -0.99459,0.41776 -0.97263,0.29349 z m -45.316047,-8.50627 c -0.153591,-0.51085 2.012605,-2.89085 5.132878,-5.63978 2.592865,-2.28417 3.33748,-2.49419 0.950083,-0.26802 -3.804853,3.54783 -5.454112,5.29234 -5.390033,5.70152 0.08871,0.56632 -0.529516,0.75039 -0.693089,0.20632 z m 44.352977,6.99582 c 0.0348,-0.20203 0.95878,-1.13916 4.35309,-4.4186 1.21351,-1.1724 2.63692,-2.7011 3.16317,-3.3972 1.17056,-1.54825 1.7078,-1.9272 1.23187,-0.86889 -0.82828,1.84185 -8.96497,9.91934 -8.74812,8.68448 z M 61.16254,152.16046 c 0.769724,-0.38325 9.714748,-0.32656 9.646668,0.0612 -0.02241,0.12773 -0.321807,0.18837 -0.665292,0.13479 -0.343485,-0.0536 -2.425049,-0.0601 -4.625699,-0.0145 -4.318712,0.0895 -4.855243,0.0672 -4.355963,-0.18144 z m 79.69693,12.09757 c 0.0396,-0.22975 0.94609,-1.27626 1.73855,-2.00881 0.75905,-0.70167 3.72088,-4.39678 5.09199,-6.35271 1.30009,-1.8545 1.00167,-0.7904 -0.37993,1.35498 -1.95205,3.03111 -6.6482,8.13213 -6.45055,7.0067 z m -43.287498,-7.05728 c 0.09124,-0.51972 6.486348,-5.80786 6.720798,-5.55748 0.0663,0.071 -1.36714,1.36422 -3.18569,2.87405 -3.673649,3.04992 -3.588059,2.9848 -3.535139,2.68343 z m 4.187338,0.63617 c 0.0305,-0.17317 4.91024,-5.07514 6.15996,-6.18754 0.43381,-0.38623 1.07361,-0.95879 1.42187,-1.27234 1.51155,-1.36098 0.70635,-0.14976 -0.91899,1.38239 -0.98755,0.93091 -2.84187,2.72295 -4.12092,3.98245 -2.15919,2.12643 -2.61313,2.50058 -2.54193,2.09512 z m -43.893905,-7.09193 c 0.420615,0.009 1.659215,-0.0494 2.75246,-0.13028 3.286654,-0.24328 5.821808,-0.24423 8.111595,-0.003 l 2.169794,0.22855 -1.684641,-0.0243 c -2.411916,-0.0347 -5.334621,0.0197 -7.989471,0.14885 -1.266077,0.0616 -2.712084,0.0335 -3.21336,-0.0624 -0.801921,-0.1534 -0.819526,-0.17232 -0.146653,-0.1575 z m 81.475495,12.15355 c 0.3391,-0.25955 0.77411,-0.65953 0.9667,-0.88884 2.12153,-2.52575 5.83522,-6.55415 5.93947,-6.4428 0.40165,0.42896 -6.20142,7.67716 -7.06961,7.76023 -0.3528,0.0337 -0.31662,-0.0613 0.16316,-0.42853 z m -44.478397,-7.21421 c 0.372357,-0.53703 3.90866,-3.39682 4.034156,-3.26279 0.100209,0.10695 -3.575383,3.29741 -4.062808,3.52669 -0.126044,0.0593 -0.113227,-0.0595 0.0285,-0.2639 z m 10.535047,0.69495 c 0.0497,-0.32979 3.1062,-3.50972 3.23767,-3.36923 0.0715,0.0765 -0.63375,0.90585 -1.56737,1.84309 -0.93364,0.93724 -1.6853,1.62404 -1.6703,1.52621 z m -36.813785,-6.97181 c 0.444469,-0.23961 10.014331,0.0137 11.725087,0.31035 1.048233,0.18178 -0.417954,0.30275 -2.336911,0.19282 -0.919639,-0.0527 -3.268799,-0.14061 -5.220213,-0.19534 -3.66847,-0.10293 -4.442256,-0.16008 -4.168028,-0.30784 z m 71.345585,9.89033 c 0.55741,-0.3334 1.43345,-1.46133 2.491,-3.20732 5.14703,-8.4977 7.31749,-11.13402 11.52569,-14.00015 1.48367,-1.01058 0.5203,0.18057 -1.52587,1.88664 -2.44708,2.0403 -3.36642,3.07749 -4.22767,4.76942 -0.33427,0.65658 -0.71143,1.23069 -0.8382,1.27575 -0.29896,0.10634 -2.76212,3.46936 -2.82362,3.85516 -0.25764,1.61584 -4.08767,6.14901 -5.06611,5.99631 -0.24122,-0.0377 -0.0604,-0.26166 0.46508,-0.57588 z M 67.885862,147.89791 c 0.08509,-0.48449 13.061464,-0.0327 16.434122,0.57215 1.584458,0.28419 1.181017,0.26946 -5.597614,-0.20429 -1.835289,-0.12826 -4.979447,-0.23461 -6.986695,-0.23625 -4.02136,-0.003 -3.873221,0.002 -3.849813,-0.13161 z m 55.203048,7.76949 c 0.1173,-0.17623 0.55434,-0.90387 0.97117,-1.61697 1.08628,-1.85853 3.30402,-4.64318 4.87353,-6.11968 2.1205,-1.99455 1.95703,-1.43721 -0.2598,0.88563 -1.10416,1.15704 -2.70847,3.16155 -3.56506,4.45454 -0.85655,1.29295 -1.70944,2.4331 -1.89537,2.53387 -0.22484,0.1218 -0.26658,0.0758 -0.12461,-0.13736 z m -4.7672,-1.18944 c 0.0684,-0.41521 5.56299,-6.22209 7.15852,-7.56525 1.82487,-1.53596 1.68886,-1.04518 -0.21361,0.77057 -0.91094,0.86947 -2.42838,2.41548 -3.37194,3.4353 -2.31657,2.50411 -3.63639,3.74492 -3.57316,3.35939 z m -9.50705,-1.83929 c 0.0464,-0.26211 3.09318,-2.81452 4.67831,-3.91859 0.77097,-0.53703 1.38454,-0.8787 1.36358,-0.75928 -0.0204,0.11947 -0.6143,0.63318 -1.31854,1.14171 -0.70423,0.50852 -2.06186,1.55108 -3.01703,2.31682 -0.95509,0.76574 -1.72291,1.31447 -1.70625,1.21941 z m 39.35312,5.58683 c 0.29192,-0.3111 1.21989,-1.83755 2.06218,-3.39221 1.63942,-3.02582 2.15884,-2.89872 0.67858,0.16617 -1.12548,2.33033 -2.30992,3.94162 -2.83699,3.85937 -0.37656,-0.0588 -0.36373,-0.14326 0.0962,-0.63345 z m -32.29785,-7.30226 c 0.0561,-0.31893 3.71129,-3.34914 3.98804,-3.30596 0.43646,0.0681 0.31377,0.20601 -1.42881,1.6056 -1.78658,1.43493 -2.60843,1.98098 -2.55916,1.70032 z m 13.01404,0.65903 c -0.0928,-0.35437 4.87249,-5.90303 5.42856,-6.06651 0.18397,-0.0541 0.32663,-0.0535 0.31704,0.001 -0.0709,0.40378 -5.67837,6.32307 -5.74578,6.0653 z m 12.38808,0.8509 c 0.34824,-0.43201 0.78068,-1.02772 0.96097,-1.32382 0.71116,-1.16791 7.92502,-8.53727 8.1363,-8.31162 0.0645,0.0687 -0.48543,0.75679 -1.22182,1.52893 -0.7364,0.77213 -2.88737,3.09868 -4.7799,5.17044 -3.14271,3.43989 -4.66706,4.88596 -3.09547,2.93616 z M 72.915415,141.97359 c 0.06519,-0.37134 4.924221,-0.24175 9.842557,0.26251 2.593985,0.26595 1.760859,0.48331 -0.941358,0.24557 -2.310463,-0.20326 -7.327718,-0.39268 -8.397338,-0.31707 -0.299271,0.0212 -0.525998,-0.0648 -0.503826,-0.19103 z m 64.010325,9.6934 c 0.059,-0.33612 5.52355,-5.64849 5.93457,-5.76947 0.54244,-0.15951 0.35201,0.0565 -2.7316,3.09834 -2.94077,2.90095 -3.29542,3.19673 -3.20312,2.6711 z M 73.136831,140.82466 c 0.510298,-0.15919 9.573146,-0.22338 12.431468,-0.088 3.188627,0.15098 0.9404,0.26257 -5.011261,0.24871 -3.403137,-0.008 -6.579375,-0.0116 -7.058523,-0.008 -0.654478,0.005 -0.744415,-0.0332 -0.361879,-0.15255 z m 62.389549,8.16065 c 0.67432,-0.66401 1.46262,-1.32952 1.75187,-1.47893 0.2892,-0.14941 0.14118,0.0927 -0.32903,0.53818 -0.47015,0.44541 -1.09319,1.06233 -1.38454,1.37094 -0.29133,0.3086 -0.69498,0.60971 -0.89699,0.66911 -0.202,0.0594 0.18435,-0.43529 0.85868,-1.09927 z M 78.852257,138.88636 c -0.268881,-0.48103 5.187086,-0.0804 14.530678,1.06682 8.389705,1.03016 9.024145,1.12163 8.761825,1.26317 -0.10795,0.0582 -4.130868,-0.36095 -8.940298,-0.9314 -7.611542,-0.90277 -10.77746,-1.176 -13.550679,-1.16925 -0.36983,9.1e-4 -0.73048,-0.1023 -0.801492,-0.22933 z m 73.328463,10.59211 c 0.63212,-1.24921 5.754,-6.50394 6.04085,-6.19758 0.10251,0.10939 -5.75655,6.55032 -6.12189,6.72999 -0.13799,0.0678 -0.10147,-0.17171 0.0803,-0.53235 z m -1.99453,-0.97939 c 0.47236,-0.89217 4.96611,-4.95323 5.20189,-4.70113 0.0609,0.065 -0.55679,0.72337 -1.37257,1.46302 -0.81577,0.73965 -1.99846,1.89659 -2.62817,2.57093 -1.1921,1.27659 -1.66211,1.53764 -1.20123,0.66717 z M 87.701731,135.5816 c 0.416936,-0.22852 6.517541,0.48121 6.469865,0.75269 -0.01883,0.10702 -0.484617,0.12429 -1.035173,0.0383 -0.550551,-0.0859 -2.07505,-0.2572 -3.387813,-0.38054 -1.612921,-0.1516 -2.276612,-0.2847 -2.047008,-0.41055 z m 1.145049,-1.61421 c 0.857944,-0.11919 11.39511,1.53842 12.69677,1.99734 0.55402,0.19534 -2.048276,-0.13228 -6.217292,-0.78272 -4.333939,-0.67618 -6.896809,-1.15662 -6.479479,-1.21463 z m 15.94312,1.35559 c -0.88349,-0.25855 -3.26375,-0.86892 -5.289183,-1.35629 -2.268548,-0.54588 -3.10347,-0.80774 -2.174179,-0.68187 1.535115,0.20791 7.475712,1.6688 9.852322,2.42287 1.88349,0.59759 -0.15322,0.26962 -2.38905,-0.38471 z m 5.52497,-0.13184 c -0.0603,-0.0586 -2.90157,-0.73018 -6.31445,-1.49223 -3.41286,-0.76206 -6.322097,-1.50653 -6.465143,-1.65442 -0.393807,-0.40741 11.830983,2.38399 13.875973,3.16848 l 0.86308,0.33106 -0.92516,-0.12313 c -0.50883,-0.0677 -0.97436,-0.17113 -1.03439,-0.22979 z m -8.00187,-5.87241 c 0.67631,-0.004 3.52571,0.29477 6.33206,0.66453 3.3285,0.43859 4.36353,0.6233 2.97745,0.53138 -3.18132,-0.21099 -10.77627,-1.18664 -9.30919,-1.19588 z m 18.05447,2.10735 c -0.78567,-0.28596 -0.79648,-0.30536 -0.11685,-0.20953 0.41206,0.0581 1.00256,0.23633 1.31231,0.39613 0.69428,0.35821 0.005,0.25086 -1.19556,-0.18658 z m 14.83869,2.05842 c -0.69434,-0.37393 -3.59799,-1.68316 -6.45275,-2.90942 -2.85465,-1.22624 -5.23158,-2.36689 -5.28202,-2.53479 -0.0509,-0.1678 2.29601,0.77351 5.21435,2.09203 5.50131,2.48548 7.99131,3.71841 7.95278,3.9378 -0.0299,0.17295 -0.004,0.18362 -1.43252,-0.58563 z m -19.83173,-3.35348 c -3.48439,-0.821 -4.65465,-1.15705 -4.43755,-1.27416 0.21093,-0.11375 6.11277,1.28836 7.56956,1.79831 1.31324,0.45964 0.38119,0.30367 -3.13226,-0.52419 z m 3.89236,-0.51914 c -0.41334,-0.16738 -2.06644,-0.58988 -3.67364,-0.93891 -4.45696,-0.96791 -4.66381,-1.0173 -5.12167,-1.22281 -0.23483,-0.10542 -0.62001,-0.27277 -0.85592,-0.37191 -0.59585,-0.25036 3.52101,0.6032 6.39444,1.32578 2.15644,0.54228 5.53876,1.74064 4.45706,1.57918 -0.24686,-0.0368 -0.78706,-0.20396 -1.20035,-0.37134 z m 12.73427,1.14025 c -1.95777,-0.87326 -4.57099,-1.92629 -5.8072,-2.34007 -1.23624,-0.41378 -2.23234,-0.84 -2.21352,-0.94713 0.0189,-0.10714 0.32754,-0.0948 0.68611,0.0275 0.35853,0.12229 1.28183,0.42975 2.05184,0.68325 1.39251,0.45849 8.2331,3.50362 9.02226,4.01617 0.80901,0.52568 -0.22745,0.12657 -3.73932,-1.43983 z m 23.97898,4.65449 c -0.27755,-0.10263 -0.48673,-0.28839 -0.46488,-0.41282 0.0223,-0.12437 0.17267,-0.13475 0.33516,-0.0229 0.16248,0.11181 0.64015,0.34266 1.06144,0.51302 0.83466,0.33752 0.004,0.26859 -0.93173,-0.0772 z m -32.08652,-5.70772 c -0.23552,-0.10163 -0.60748,-0.25993 -0.82665,-0.35175 -0.21916,-0.0918 -0.32514,-0.2065 -0.23551,-0.25482 0.0896,-0.0484 0.66321,0.14233 1.27464,0.42367 1.00402,0.46199 0.81371,0.6258 -0.21247,0.1829 z m -2.89448,-1.00396 -0.71494,-0.30038 0.75064,0.0972 c 0.41285,0.0535 0.93479,0.22886 1.15983,0.38971 0.52117,0.3724 -0.0932,0.27652 -1.19553,-0.18658 z"
       id="path1"
       style="fill:#5ba55d;fill-opacity:1;stroke-width:0.283178" /><path
       style="fill:#011202;fill-opacity:1;stroke-width:0.973947"
       d="m 123.46237,160.3285 -1.24539,-1.26547 1.10329,-2.90171 c 0.60681,-1.59595 1.56399,-4.11737 2.12706,-5.60317 1.41854,-3.74311 2.89948,-8.597 3.27257,-10.72615 0.24171,-1.3793 0.4106,-1.78594 0.74179,-1.78594 0.52321,0 2.0618,1.201 2.76136,2.15546 l 0.51323,0.70025 -0.75466,1.54871 c -0.86713,1.77951 -2.49106,5.53127 -3.27468,7.56546 -0.29483,0.76537 -0.79642,2.04642 -1.11462,2.84679 -0.7176,1.80496 -1.87851,5.69288 -1.88039,6.29751 -0.003,0.79612 -0.51667,2.43374 -0.76416,2.43374 -0.13201,0 -0.80044,-0.56946 -1.4854,-1.26548 z m -91.788634,0.61906 c -0.302951,-0.23178 -0.779243,-0.75961 -1.058426,-1.17294 l -0.507605,-0.75151 1.40514,-3.41092 c 1.613367,-3.91638 4.350579,-12.46778 4.987555,-15.58175 0.238135,-1.16417 0.462442,-2.15341 0.498458,-2.19832 0.187813,-0.23416 1.857198,0.7976 2.571729,1.58945 l 0.820641,0.90945 -0.788312,1.83284 c -0.995412,2.31436 -5.652082,14.81836 -5.881201,15.7921 -0.156957,0.66705 -0.111505,0.72704 0.546188,0.72081 0.394566,-0.004 1.677379,-0.2388 2.850694,-0.52237 1.173317,-0.28357 2.548065,-0.51864 3.055,-0.52238 0.832106,-0.006 0.949738,0.0828 1.210165,0.91466 0.158656,0.5068 0.252121,1.19141 0.207696,1.52135 -0.0774,0.57494 -0.206124,0.60656 -3.092489,0.75978 -1.656446,0.0879 -3.745826,0.24567 -4.643068,0.35053 -1.30332,0.15231 -1.742103,0.10591 -2.182165,-0.23078 z m 101.622444,-0.43651 c -0.76608,-0.82605 -2.05383,-3.9112 -3.19244,-7.64832 -0.24385,-0.80037 -0.55571,-1.71473 -0.69302,-2.03192 -0.21061,-0.48653 -0.0483,-0.86863 1.03819,-2.44335 0.70832,-1.02664 1.28785,-1.9816 1.28785,-2.12212 0,-0.14051 0.14953,-0.3507 0.33229,-0.46707 0.18276,-0.11637 0.60426,-0.6283 0.93666,-1.13762 0.97282,-1.49058 4.9478,-5.51448 6.01375,-6.08778 0.53875,-0.28974 1.24989,-0.52681 1.58033,-0.52681 0.70609,0 1.71625,0.91554 2.28144,2.06776 0.40096,0.8174 0.40089,0.81761 -0.41493,1.18979 -3.1299,1.4279 -4.75014,2.50584 -6.92347,4.60616 -1.08735,1.05082 -2.44606,2.55154 -3.01936,3.33493 l -1.04237,1.42435 0.65166,1.55986 c 0.90755,2.17237 3.20386,5.74376 4.31255,6.70718 l 0.92715,0.80567 -0.6218,0.65043 c -0.35216,0.36837 -1.06143,0.72341 -1.63558,0.81872 -0.91455,0.15182 -1.09257,0.0833 -1.8189,-0.69986 z m -67.318028,-0.8353 c -0.273529,-0.47294 -0.497748,-1.22183 -0.498264,-1.6642 -0.0034,-2.92311 3.920872,-12.55715 5.114966,-12.55715 0.395851,0 1.895013,1.69288 1.941176,2.19201 0.06606,0.71429 -0.124321,1.1955 -1.182758,2.98957 -0.608172,1.03086 -1.105767,1.9483 -1.105767,2.03877 0,0.0905 -0.282349,0.6031 -0.627441,1.13919 -0.345094,0.53609 -0.624386,1.16646 -0.620652,1.40081 0.0064,0.40643 0.763528,-0.34763 2.100993,-2.09269 0.858784,-1.1205 3.517757,-4.09281 3.782366,-4.22808 0.142327,-0.0728 0.744535,-0.47956 1.338239,-0.90399 1.353509,-0.96762 2.376739,-0.99665 3.235064,-0.0918 l 0.644944,0.67991 -0.665259,0.75325 c -0.738293,0.83595 -2.20616,3.87831 -2.661217,5.51575 -0.161765,0.58209 -0.256546,1.47506 -0.210626,1.98438 0.0779,0.86395 0.142017,0.92604 0.956363,0.92604 1.218301,0 1.289319,0.68734 0.131176,1.26956 -1.592324,0.8005 -3.507873,0.38338 -3.825319,-0.83298 -0.340059,-1.303 -0.135449,-3.34738 0.501365,-5.00945 0.451925,-1.17952 0.538358,-1.64484 0.305525,-1.64484 -0.610665,0 -3.648102,3.26304 -5.706814,6.13068 -1.13131,1.57584 -2.145535,2.86516 -2.253831,2.86516 -0.108297,0 -0.420699,-0.38696 -0.694229,-0.8599 z m 86.608248,0.48663 c -0.50033,-0.63556 -0.59683,-2.1657 -0.28053,-4.44823 0.29825,-2.15227 1.40571,-6.69785 1.75831,-7.21705 0.0988,-0.14552 0.55595,-1.27661 1.01583,-2.51354 1.67993,-4.51853 5.46622,-10.58939 6.59699,-10.57752 0.81541,0.009 2.68672,0.97069 2.68672,1.38137 0,0.1951 -0.50822,0.88055 -1.1294,1.52324 -0.62116,0.64268 -1.12939,1.31556 -1.12939,1.49529 0,0.17973 -0.21018,0.48236 -0.46706,0.67251 -0.76158,0.56374 -2.63062,3.60504 -3.87101,6.29886 -1.10491,2.39962 -2.30871,5.78106 -2.12646,5.97318 0.0472,0.0498 0.85287,-0.86067 1.79026,-2.02331 3.6363,-4.51012 6.26962,-5.54975 8.23042,-3.24935 0.39481,0.46319 0.35005,0.58455 -0.81515,2.2099 -1.49066,2.07932 -3.74491,6.64413 -3.74491,7.58334 0,0.60372 0.0832,0.66592 0.75293,0.5623 1.19223,-0.18446 0.90725,0.45046 -0.48574,1.08219 -0.68126,0.30897 -1.33921,0.56175 -1.4621,0.56175 -0.46299,0 -1.31485,-1.25223 -1.31485,-1.93281 0,-0.72154 1.16238,-4.1196 2.34818,-6.86458 0.36146,-0.83675 0.56045,-1.52136 0.44218,-1.52136 -0.11826,0 -0.79366,0.4857 -1.50089,1.07933 -1.64531,1.38104 -4.24047,5.01721 -5.69727,7.98265 -0.62553,1.27331 -1.17464,2.31511 -1.22026,2.31511 -0.0457,0 -0.21517,-0.16797 -0.3768,-0.37327 z m 13.55426,-0.32135 c -0.78616,-1.05362 -0.68165,-2.83661 0.35832,-6.11301 0.85944,-2.70767 2.6642,-6.6987 3.61537,-7.99503 l 0.47506,-0.64745 0.88799,0.93612 c 1.38183,1.45674 1.38522,1.94202 0.0305,4.35427 -1.45675,2.59388 -2.69259,5.15123 -2.55793,5.29319 0.0559,0.0589 0.84207,-0.8164 1.74719,-1.945 2.44212,-3.04509 5.0266,-5.56741 6.32497,-6.17288 0.99439,-0.46372 1.23932,-0.48963 1.81448,-0.19198 1.13543,0.58758 1.26498,1.10391 0.51332,2.04564 -1.39349,1.74585 -3.25641,6.96753 -2.86723,8.03669 0.11169,0.30685 0.44928,0.44822 1.07036,0.44822 1.15001,0 1.05544,0.48231 -0.22585,1.15177 -1.12298,0.58674 -2.37606,0.42729 -3.07817,-0.39171 -0.72808,-0.84927 -0.62498,-3.60297 0.21405,-5.71746 l 0.65477,-1.65012 -0.67124,0.37395 c -0.96334,0.53667 -3.98201,3.88725 -5.78079,6.4164 -0.84774,1.19196 -1.64525,2.23489 -1.77222,2.31762 -0.12698,0.0827 -0.4658,-0.16442 -0.75292,-0.54923 z M 45.031782,159.66737 c -0.548067,-0.32725 -1.264731,-1.0099 -1.592588,-1.517 -0.530694,-0.82085 -0.584358,-1.14513 -0.489074,-2.95542 0.08427,-1.60092 0.274714,-2.38877 0.895424,-3.70417 1.532883,-3.24846 4.308914,-5.76377 6.367323,-5.76932 1.284269,-0.003 2.466278,1.06189 2.466278,2.22286 0,2.76863 -1.853113,5.22114 -5.22381,6.91349 l -2.086603,1.04763 0.153485,1.05142 c 0.213605,1.46326 0.775147,2.05587 1.745691,1.84228 1.00848,-0.22193 2.989542,-1.55488 3.776787,-2.54119 0.645211,-0.80836 1.226614,-0.81643 0.959256,-0.0133 -0.457831,1.37528 -3.888554,4.02941 -5.198922,4.02207 -0.42722,-0.002 -1.225181,-0.2721 -1.773247,-0.59934 z m 4.490691,-7.94484 c 0.629942,-0.87068 1.399837,-2.56719 1.399837,-3.08464 0,-0.80608 -2.254777,0.46298 -3.188755,1.79474 -0.718087,1.02392 -1.830778,3.38594 -1.830778,3.88637 0,0.56637 2.767793,-1.41902 3.619696,-2.59647 z m 6.827216,8.14687 c -1.086654,-0.39383 -1.485059,-0.84882 -2.191757,-2.50307 -0.397755,-0.93107 -0.469453,-1.46958 -0.33465,-2.51354 0.521838,-4.0413 3.89372,-8.67376 6.591097,-9.05517 0.844214,-0.11937 1.035689,-0.0321 1.712182,0.78013 0.418919,0.50299 1.042871,0.98893 1.386561,1.07987 1.53092,0.40507 1.618385,4.08716 0.172465,7.26035 -0.836695,1.8362 -3.146827,4.06887 -4.892361,4.72833 -1.328054,0.50173 -1.604981,0.52701 -2.443537,0.2231 z m 1.748863,-1.19522 c 1.236363,-0.49555 3.51113,-2.96741 3.728507,-4.05155 0.0336,-0.16758 0.203225,-0.66188 0.376945,-1.09844 0.385683,-0.96923 0.638082,-3.80928 0.419959,-4.72547 -0.146685,-0.61612 -0.219911,-0.64775 -0.911432,-0.39361 -1.051765,0.38652 -3.707148,3.50873 -4.466206,5.25137 -0.860861,1.97636 -0.907109,5.29167 -0.07382,5.29167 0.133383,0 0.550103,-0.12329 0.926047,-0.27397 z m 23.611422,0.2504 -1.046942,-1.0819 0.0012,-2.29154 c 0.0011,-1.97273 0.104374,-2.5308 0.743026,-4.01133 0.836785,-1.93985 3.01357,-4.53884 4.453574,-5.31739 1.366011,-0.73854 2.05556,-0.64632 2.877958,0.38493 0.389651,0.48861 1.023035,0.96818 1.40752,1.06572 0.938173,0.23802 1.242728,1.18602 1.114722,3.46984 -0.118324,2.11111 -0.471269,3.18606 -1.618855,4.93051 -1.018111,1.54763 -2.112108,2.52407 -3.708602,3.31007 -1.939561,0.95491 -2.963044,0.8437 -4.223566,-0.45891 z m 3.18323,-0.34021 c 1.245348,-0.54855 2.476242,-1.81909 3.148113,-3.24952 0.331054,-0.70482 0.709986,-1.50829 0.84207,-1.78549 0.296462,-0.62216 0.564506,-4.4563 0.352296,-5.03929 -0.138992,-0.38185 -0.258531,-0.37026 -1.155228,0.112 -3.04291,1.63654 -5.576322,6.80157 -4.707983,9.59847 0.258526,0.83271 0.386661,0.86336 1.520732,0.36383 z m 7.888456,0.76078 -0.923186,-0.66133 0.378337,-1.38919 c 1.043763,-3.83253 1.489429,-5.28862 2.28373,-7.46143 1.172251,-3.20668 1.766521,-4.3788 2.220091,-4.3788 0.488097,0 2.369174,1.00587 2.369174,1.26687 0,0.10878 -0.262527,0.61238 -0.583391,1.1191 -0.627747,0.99137 -1.507633,3.17074 -1.348065,3.33897 0.143188,0.15094 3.23737,-3.05941 3.9849,-4.13451 0.59209,-0.85154 0.6979,-0.90134 1.36476,-0.64236 0.45391,0.17627 0.67815,0.42131 0.60264,0.65852 -0.0661,0.20778 -0.12369,1.35786 -0.12786,2.55574 -0.007,1.86654 -0.0844,2.25894 -0.54479,2.7443 -0.52859,0.55724 -0.54743,0.55838 -1.17261,0.071 -0.34947,-0.27244 -0.75364,-0.76323 -0.89816,-1.09066 -0.33421,-0.75721 -0.729092,-0.75073 -1.730823,0.0284 -1.713615,1.3328 -3.19961,3.91707 -3.939335,6.85078 -0.247675,0.98227 -0.576746,1.78594 -0.73127,1.78594 -0.154526,0 -0.69639,-0.2976 -1.204142,-0.66133 z m 11.68909,0.0104 c -0.84561,-0.6244 -1.17361,-1.82064 -1.0398,-3.79222 0.26064,-3.84017 3.2229,-8.47913 5.96813,-9.34621 0.86235,-0.27237 0.96198,-0.23864 1.76849,0.59879 1.04315,1.08315 1.06925,1.32737 0.18521,1.73264 -1.62408,0.74452 -3.72497,3.07538 -4.66752,5.17846 -0.81812,1.82544 -1.25035,4.00106 -0.84709,4.26381 0.43385,0.28266 1.90929,-1.0222 2.96529,-2.62247 1.12509,-1.70497 2.13464,-3.53301 3.39288,-6.14365 0.43835,-0.90951 0.90315,-1.65365 1.03288,-1.65365 0.12974,0 0.61351,0.18891 1.07506,0.4198 l 0.83917,0.41981 -0.39406,0.96926 c -0.21673,0.53309 -0.59583,1.44551 -0.84244,2.02759 -1.14836,2.71052 -1.66056,6.73149 -0.95256,7.47788 0.22182,0.23383 0.12755,0.37352 -0.3928,0.58208 -1.72394,0.69097 -2.40881,0.0252 -2.40881,-2.3415 v -1.64821 l -1.24729,1.50262 c -2.17257,2.61733 -3.29364,3.21775 -4.43474,2.37517 z m 6.1763,-5.03762 c 0,-0.14552 -0.10948,-0.086 -0.2433,0.13229 -0.1338,0.21828 -0.24328,0.51594 -0.24328,0.66146 0,0.14552 0.10948,0.086 0.24328,-0.13229 0.13382,-0.21829 0.2433,-0.51594 0.2433,-0.66146 z m 29.44793,5.10726 c -0.73623,-0.37499 -1.07989,-1.5174 -1.07989,-3.58976 0,-1.38965 0.15807,-2.06521 0.84201,-3.59854 1.42278,-3.18969 3.62321,-5.6651 5.4324,-6.11128 0.48512,-0.11964 0.84093,0.0537 1.5686,0.76415 0.51764,0.50539 0.94117,1.02011 0.94117,1.14382 0,0.1237 -0.38606,0.37209 -0.8579,0.55196 -1.98375,0.75622 -5.26244,5.60112 -5.60326,8.27991 -0.11365,0.89329 -0.0662,1.02435 0.37083,1.02435 0.74557,0 1.70932,-0.91127 2.89414,-2.73655 0.98098,-1.51126 1.52754,-2.51885 3.36662,-6.20636 0.6232,-1.24957 0.76816,-1.38454 1.33111,-1.23936 1.12044,0.28895 1.35639,0.73052 1.00823,1.88684 -0.16881,0.56067 -0.45281,1.2655 -0.63111,1.56629 -1.0453,1.76339 -1.81606,7.20541 -1.08771,7.67996 0.4274,0.27847 -0.48677,0.90127 -1.32295,0.90127 -1.22187,0 -1.55231,-0.64738 -1.41007,-2.76244 0.069,-1.02727 0.20664,-2.1059 0.30568,-2.39694 0.099,-0.29104 -0.17201,0.0956 -0.60232,0.85917 -0.43031,0.76358 -1.41387,2.0435 -2.18568,2.84427 -1.45825,1.51295 -2.10509,1.73762 -3.2799,1.13924 z"
       id="path1-7" /></g></svg>
