<?xml version="1.0" encoding="UTF-8" standalone="no"?>
<!-- Created with Inkscape (http://www.inkscape.org/) -->

<svg
   width="29.450945mm"
   height="29.450592mm"
   viewBox="0 0 29.450945 29.450592"
   version="1.1"
   id="svg1"
   xml:space="preserve"
   sodipodi:docname="Twitter logo.svg"
   inkscape:version="1.3.2 (091e20e, 2023-11-25, custom)"
   xmlns:inkscape="http://www.inkscape.org/namespaces/inkscape"
   xmlns:sodipodi="http://sodipodi.sourceforge.net/DTD/sodipodi-0.dtd"
   xmlns="http://www.w3.org/2000/svg"
   xmlns:svg="http://www.w3.org/2000/svg"><sodipodi:namedview
     id="namedview1"
     pagecolor="#ffffff"
     bordercolor="#000000"
     borderopacity="0.25"
     inkscape:showpageshadow="2"
     inkscape:pageopacity="0.0"
     inkscape:pagecheckerboard="0"
     inkscape:deskcolor="#d1d1d1"
     inkscape:document-units="mm"
     inkscape:zoom="0.74920735"
     inkscape:cx="55.391875"
     inkscape:cy="56.059247"
     inkscape:window-width="1382"
     inkscape:window-height="1008"
     inkscape:window-x="131"
     inkscape:window-y="0"
     inkscape:window-maximized="0"
     inkscape:current-layer="layer1" /><defs
     id="defs1"><clipPath
       clipPathUnits="userSpaceOnUse"
       id="clipPath3"><path
         d="M 0,500 H 500 V 0 H 0 Z"
         transform="translate(-102.0825,-332.72561)"
         id="path3" /></clipPath><clipPath
       clipPathUnits="userSpaceOnUse"
       id="clipPath5"><path
         d="M 0,500 H 500 V 0 H 0 Z"
         transform="translate(-87.458005,-304.51761)"
         id="path5" /></clipPath><clipPath
       clipPathUnits="userSpaceOnUse"
       id="clipPath7"><path
         d="M 0,500 H 500 V 0 H 0 Z"
         transform="translate(-115.73391,-373.62551)"
         id="path7" /></clipPath><clipPath
       clipPathUnits="userSpaceOnUse"
       id="clipPath33"><path
         d="M 0,500 H 500 V 0 H 0 Z"
         transform="translate(-322.83791,-354.29301)"
         id="path33" /></clipPath><clipPath
       clipPathUnits="userSpaceOnUse"
       id="clipPath35"><path
         d="M 0,500 H 500 V 0 H 0 Z"
         transform="translate(-303.94821,-304.51761)"
         id="path35" /></clipPath><clipPath
       clipPathUnits="userSpaceOnUse"
       id="clipPath37"><path
         d="M 0,500 H 500 V 0 H 0 Z"
         transform="translate(-332.22461,-373.62551)"
         id="path37" /></clipPath><clipPath
       clipPathUnits="userSpaceOnUse"
       id="clipPath45"><path
         d="M 0,500 H 500 V 0 H 0 Z"
         transform="translate(-198.89451,-354.95121)"
         id="path45" /></clipPath><clipPath
       clipPathUnits="userSpaceOnUse"
       id="clipPath47"><path
         d="M 0,500 H 500 V 0 H 0 Z"
         transform="translate(-195.66891,-304.51761)"
         id="path47" /></clipPath><clipPath
       clipPathUnits="userSpaceOnUse"
       id="clipPath49"><path
         d="M 0,500 H 500 V 0 H 0 Z"
         transform="translate(-223.9453,-373.62551)"
         id="path49" /></clipPath><clipPath
       clipPathUnits="userSpaceOnUse"
       id="clipPath39"><path
         d="M 0,500 H 500 V 0 H 0 Z"
         transform="translate(-434.18651,-246.8271)"
         id="path39" /></clipPath><clipPath
       clipPathUnits="userSpaceOnUse"
       id="clipPath41"><path
         d="M 0,500 H 500 V 0 H 0 Z"
         transform="translate(-412.46191,-191.81351)"
         id="path41" /></clipPath><clipPath
       clipPathUnits="userSpaceOnUse"
       id="clipPath43"><path
         d="M 0,500 H 500 V 0 H 0 Z"
         transform="translate(-440.73731,-260.9199)"
         id="path43" /></clipPath><clipPath
       clipPathUnits="userSpaceOnUse"
       id="clipPath3-4"><path
         d="M 0,500 H 500 V 0 H 0 Z"
         transform="translate(-102.0825,-332.72561)"
         id="path3-4" /></clipPath><clipPath
       clipPathUnits="userSpaceOnUse"
       id="clipPath5-1"><path
         d="M 0,500 H 500 V 0 H 0 Z"
         transform="translate(-87.458005,-304.51761)"
         id="path5-4" /></clipPath><clipPath
       clipPathUnits="userSpaceOnUse"
       id="clipPath7-2"><path
         d="M 0,500 H 500 V 0 H 0 Z"
         transform="translate(-115.73391,-373.62551)"
         id="path7-4" /></clipPath><clipPath
       clipPathUnits="userSpaceOnUse"
       id="clipPath33-8"><path
         d="M 0,500 H 500 V 0 H 0 Z"
         transform="translate(-322.83791,-354.29301)"
         id="path33-7" /></clipPath><clipPath
       clipPathUnits="userSpaceOnUse"
       id="clipPath35-7"><path
         d="M 0,500 H 500 V 0 H 0 Z"
         transform="translate(-303.94821,-304.51761)"
         id="path35-1" /></clipPath><clipPath
       clipPathUnits="userSpaceOnUse"
       id="clipPath37-2"><path
         d="M 0,500 H 500 V 0 H 0 Z"
         transform="translate(-332.22461,-373.62551)"
         id="path37-6" /></clipPath><clipPath
       clipPathUnits="userSpaceOnUse"
       id="clipPath45-9"><path
         d="M 0,500 H 500 V 0 H 0 Z"
         transform="translate(-198.89451,-354.95121)"
         id="path45-1" /></clipPath><clipPath
       clipPathUnits="userSpaceOnUse"
       id="clipPath47-5"><path
         d="M 0,500 H 500 V 0 H 0 Z"
         transform="translate(-195.66891,-304.51761)"
         id="path47-2" /></clipPath><clipPath
       clipPathUnits="userSpaceOnUse"
       id="clipPath49-4"><path
         d="M 0,500 H 500 V 0 H 0 Z"
         transform="translate(-223.9453,-373.62551)"
         id="path49-0" /></clipPath><clipPath
       clipPathUnits="userSpaceOnUse"
       id="clipPath39-1"><path
         d="M 0,500 H 500 V 0 H 0 Z"
         transform="translate(-434.18651,-246.8271)"
         id="path39-0" /></clipPath><clipPath
       clipPathUnits="userSpaceOnUse"
       id="clipPath41-0"><path
         d="M 0,500 H 500 V 0 H 0 Z"
         transform="translate(-412.46191,-191.81351)"
         id="path41-3" /></clipPath><clipPath
       clipPathUnits="userSpaceOnUse"
       id="clipPath43-6"><path
         d="M 0,500 H 500 V 0 H 0 Z"
         transform="translate(-440.73731,-260.9199)"
         id="path43-1" /></clipPath><clipPath
       clipPathUnits="userSpaceOnUse"
       id="clipPath3-3"><path
         d="M 0,500 H 500 V 0 H 0 Z"
         transform="translate(-102.0825,-332.72561)"
         id="path3-1" /></clipPath><clipPath
       clipPathUnits="userSpaceOnUse"
       id="clipPath5-4"><path
         d="M 0,500 H 500 V 0 H 0 Z"
         transform="translate(-87.458005,-304.51761)"
         id="path5-0" /></clipPath><clipPath
       clipPathUnits="userSpaceOnUse"
       id="clipPath7-0"><path
         d="M 0,500 H 500 V 0 H 0 Z"
         transform="translate(-115.73391,-373.62551)"
         id="path7-0" /></clipPath><clipPath
       clipPathUnits="userSpaceOnUse"
       id="clipPath33-4"><path
         d="M 0,500 H 500 V 0 H 0 Z"
         transform="translate(-322.83791,-354.29301)"
         id="path33-3" /></clipPath><clipPath
       clipPathUnits="userSpaceOnUse"
       id="clipPath35-0"><path
         d="M 0,500 H 500 V 0 H 0 Z"
         transform="translate(-303.94821,-304.51761)"
         id="path35-7" /></clipPath><clipPath
       clipPathUnits="userSpaceOnUse"
       id="clipPath37-5"><path
         d="M 0,500 H 500 V 0 H 0 Z"
         transform="translate(-332.22461,-373.62551)"
         id="path37-1" /></clipPath><clipPath
       clipPathUnits="userSpaceOnUse"
       id="clipPath45-8"><path
         d="M 0,500 H 500 V 0 H 0 Z"
         transform="translate(-198.89451,-354.95121)"
         id="path45-17" /></clipPath><clipPath
       clipPathUnits="userSpaceOnUse"
       id="clipPath47-4"><path
         d="M 0,500 H 500 V 0 H 0 Z"
         transform="translate(-195.66891,-304.51761)"
         id="path47-4" /></clipPath><clipPath
       clipPathUnits="userSpaceOnUse"
       id="clipPath49-2"><path
         d="M 0,500 H 500 V 0 H 0 Z"
         transform="translate(-223.9453,-373.62551)"
         id="path49-9" /></clipPath><clipPath
       clipPathUnits="userSpaceOnUse"
       id="clipPath39-8"><path
         d="M 0,500 H 500 V 0 H 0 Z"
         transform="translate(-434.18651,-246.8271)"
         id="path39-5" /></clipPath><clipPath
       clipPathUnits="userSpaceOnUse"
       id="clipPath41-6"><path
         d="M 0,500 H 500 V 0 H 0 Z"
         transform="translate(-412.46191,-191.81351)"
         id="path41-1" /></clipPath><clipPath
       clipPathUnits="userSpaceOnUse"
       id="clipPath43-7"><path
         d="M 0,500 H 500 V 0 H 0 Z"
         transform="translate(-440.73731,-260.9199)"
         id="path43-6" /></clipPath><clipPath
       clipPathUnits="userSpaceOnUse"
       id="clipPath3-5"><path
         d="M 0,500 H 500 V 0 H 0 Z"
         transform="translate(-102.0825,-332.72561)"
         id="path3-8" /></clipPath><clipPath
       clipPathUnits="userSpaceOnUse"
       id="clipPath5-46"><path
         d="M 0,500 H 500 V 0 H 0 Z"
         transform="translate(-87.458005,-304.51761)"
         id="path5-6" /></clipPath><clipPath
       clipPathUnits="userSpaceOnUse"
       id="clipPath7-5"><path
         d="M 0,500 H 500 V 0 H 0 Z"
         transform="translate(-115.73391,-373.62551)"
         id="path7-1" /></clipPath><clipPath
       clipPathUnits="userSpaceOnUse"
       id="clipPath33-5"><path
         d="M 0,500 H 500 V 0 H 0 Z"
         transform="translate(-322.83791,-354.29301)"
         id="path33-5" /></clipPath><clipPath
       clipPathUnits="userSpaceOnUse"
       id="clipPath35-05"><path
         d="M 0,500 H 500 V 0 H 0 Z"
         transform="translate(-303.94821,-304.51761)"
         id="path35-8" /></clipPath><clipPath
       clipPathUnits="userSpaceOnUse"
       id="clipPath37-9"><path
         d="M 0,500 H 500 V 0 H 0 Z"
         transform="translate(-332.22461,-373.62551)"
         id="path37-9" /></clipPath><clipPath
       clipPathUnits="userSpaceOnUse"
       id="clipPath45-7"><path
         d="M 0,500 H 500 V 0 H 0 Z"
         transform="translate(-198.89451,-354.95121)"
         id="path45-8" /></clipPath><clipPath
       clipPathUnits="userSpaceOnUse"
       id="clipPath47-47"><path
         d="M 0,500 H 500 V 0 H 0 Z"
         transform="translate(-195.66891,-304.51761)"
         id="path47-3" /></clipPath><clipPath
       clipPathUnits="userSpaceOnUse"
       id="clipPath49-1"><path
         d="M 0,500 H 500 V 0 H 0 Z"
         transform="translate(-223.9453,-373.62551)"
         id="path49-6" /></clipPath><clipPath
       clipPathUnits="userSpaceOnUse"
       id="clipPath39-0"><path
         d="M 0,500 H 500 V 0 H 0 Z"
         transform="translate(-434.18651,-246.8271)"
         id="path39-4" /></clipPath><clipPath
       clipPathUnits="userSpaceOnUse"
       id="clipPath41-7"><path
         d="M 0,500 H 500 V 0 H 0 Z"
         transform="translate(-412.46191,-191.81351)"
         id="path41-39" /></clipPath><clipPath
       clipPathUnits="userSpaceOnUse"
       id="clipPath43-79"><path
         d="M 0,500 H 500 V 0 H 0 Z"
         transform="translate(-440.73731,-260.9199)"
         id="path43-8" /></clipPath></defs><g
     inkscape:label="Calque 1"
     inkscape:groupmode="layer"
     id="layer1"
     transform="translate(-58.200211,-49.195036)"><g
       inkscape:label="Calque 1"
       id="layer1-3"
       transform="translate(27.476908,-9.5693916)"
       style="fill:#011202;fill-opacity:1"><path
         id="path38"
         d="m 0,0 c -1.596,-0.705 -3.304,-1.169 -5.104,-1.393 1.837,1.096 3.249,2.804 3.917,4.865 -1.726,-1.003 -3.638,-1.745 -5.662,-2.135 -1.632,1.707 -3.953,2.766 -6.514,2.766 -4.919,0 -8.909,-3.917 -8.909,-8.762 0,-0.687 0.074,-1.356 0.222,-2.005 -7.405,0.371 -13.975,3.861 -18.375,9.17 -0.761,-1.299 -1.206,-2.803 -1.206,-4.418 0,-3.044 1.577,-5.717 3.972,-7.295 -1.466,0.037 -2.84,0.445 -4.046,1.096 v -0.112 c 0,-1.132 0.223,-2.191 0.612,-3.174 1.095,-2.766 3.545,-4.845 6.552,-5.44 -0.761,-0.184 -1.54,-0.296 -2.357,-0.296 -0.576,0 -1.132,0.056 -1.67,0.149 1.131,-3.491 4.417,-6.015 8.314,-6.089 -3.043,-2.358 -6.886,-3.769 -11.061,-3.769 -0.725,0 -1.43,0.056 -2.135,0.13 3.954,-2.487 8.649,-3.934 13.679,-3.934 13.92,0 22.496,9.652 24.742,19.657 0.408,1.782 0.612,3.564 0.612,5.309 0,0.37 0,0.761 -0.019,1.132 C -2.691,-3.304 -1.187,-1.763 0,0"
         style="fill:#011202;fill-opacity:1;fill-rule:evenodd;stroke:none"
         transform="matrix(0.35277776,0,0,-0.35277776,53.112907,68.807448)"
         clip-path="url(#clipPath39-0)" /><path
         id="path40"
         d="m 0,0 c -23.017,0 -41.742,18.726 -41.742,41.741 0,23.016 18.725,41.741 41.742,41.741 2.823,0 5.646,-0.284 8.386,-0.842 1.502,-0.306 3.009,-0.702 4.477,-1.177 0.738,-0.238 1.142,-1.028 0.903,-1.767 C 13.528,78.96 12.74,78.553 11.999,78.794 10.631,79.236 9.227,79.604 7.825,79.89 5.268,80.411 2.636,80.677 0,80.677 c -21.469,0 -38.936,-17.466 -38.936,-38.936 0,-21.469 17.467,-38.934 38.936,-38.934 21.47,0 38.936,17.465 38.936,38.934 0,6.392 -1.582,12.728 -4.575,18.324 -0.365,0.684 -0.106,1.535 0.577,1.9 0.679,0.363 1.533,0.108 1.899,-0.576 3.208,-6.003 4.904,-12.797 4.904,-19.648 C 41.741,18.726 23.016,0 0,0"
         style="fill:#011202;fill-opacity:1;fill-rule:nonzero;stroke:none"
         transform="matrix(0.35277776,0,0,-0.35277776,45.448952,88.215021)"
         clip-path="url(#clipPath41-7)" /><path
         id="path42"
         d="m 0,0 c -0.355,0 -0.711,0.135 -0.983,0.403 -0.996,0.98 -2.056,1.914 -3.149,2.78 -0.839,0.664 -1.717,1.302 -2.61,1.896 -0.645,0.43 -0.82,1.301 -0.391,1.945 0.43,0.648 1.301,0.82 1.946,0.392 C -4.23,6.778 -3.289,6.095 -2.391,5.383 -1.219,4.455 -0.084,3.453 0.983,2.403 1.536,1.861 1.544,0.973 1,0.42 0.727,0.141 0.362,0 0,0"
         style="fill:#011202;fill-opacity:1;fill-rule:nonzero;stroke:none"
         transform="matrix(0.35277776,0,0,-0.35277776,55.423883,63.835821)"
         clip-path="url(#clipPath43-79)" /></g></g></svg>
