<?xml version="1.0" encoding="UTF-8" standalone="no"?>
<!-- Created with Inkscape (http://www.inkscape.org/) -->

<svg
   width="29.450945mm"
   height="29.450945mm"
   viewBox="0 0 29.450945 29.450945"
   version="1.1"
   id="svg1"
   xml:space="preserve"
   sodipodi:docname="Youtube logo.svg"
   inkscape:version="1.3.2 (091e20e, 2023-11-25, custom)"
   xmlns:inkscape="http://www.inkscape.org/namespaces/inkscape"
   xmlns:sodipodi="http://sodipodi.sourceforge.net/DTD/sodipodi-0.dtd"
   xmlns="http://www.w3.org/2000/svg"
   xmlns:svg="http://www.w3.org/2000/svg"><sodipodi:namedview
     id="namedview1"
     pagecolor="#ffffff"
     bordercolor="#000000"
     borderopacity="0.25"
     inkscape:showpageshadow="2"
     inkscape:pageopacity="0.0"
     inkscape:pagecheckerboard="0"
     inkscape:deskcolor="#d1d1d1"
     inkscape:document-units="mm"
     inkscape:zoom="0.74920735"
     inkscape:cx="-337.02285"
     inkscape:cy="-185.52941"
     inkscape:window-width="1382"
     inkscape:window-height="1008"
     inkscape:window-x="131"
     inkscape:window-y="0"
     inkscape:window-maximized="0"
     inkscape:current-layer="layer1" /><defs
     id="defs1"><clipPath
       clipPathUnits="userSpaceOnUse"
       id="clipPath3"><path
         d="M 0,500 H 500 V 0 H 0 Z"
         transform="translate(-102.0825,-332.72561)"
         id="path3" /></clipPath><clipPath
       clipPathUnits="userSpaceOnUse"
       id="clipPath5"><path
         d="M 0,500 H 500 V 0 H 0 Z"
         transform="translate(-87.458005,-304.51761)"
         id="path5" /></clipPath><clipPath
       clipPathUnits="userSpaceOnUse"
       id="clipPath7"><path
         d="M 0,500 H 500 V 0 H 0 Z"
         transform="translate(-115.73391,-373.62551)"
         id="path7" /></clipPath><clipPath
       clipPathUnits="userSpaceOnUse"
       id="clipPath33"><path
         d="M 0,500 H 500 V 0 H 0 Z"
         transform="translate(-322.83791,-354.29301)"
         id="path33" /></clipPath><clipPath
       clipPathUnits="userSpaceOnUse"
       id="clipPath35"><path
         d="M 0,500 H 500 V 0 H 0 Z"
         transform="translate(-303.94821,-304.51761)"
         id="path35" /></clipPath><clipPath
       clipPathUnits="userSpaceOnUse"
       id="clipPath37"><path
         d="M 0,500 H 500 V 0 H 0 Z"
         transform="translate(-332.22461,-373.62551)"
         id="path37" /></clipPath><clipPath
       clipPathUnits="userSpaceOnUse"
       id="clipPath45"><path
         d="M 0,500 H 500 V 0 H 0 Z"
         transform="translate(-198.89451,-354.95121)"
         id="path45" /></clipPath><clipPath
       clipPathUnits="userSpaceOnUse"
       id="clipPath47"><path
         d="M 0,500 H 500 V 0 H 0 Z"
         transform="translate(-195.66891,-304.51761)"
         id="path47" /></clipPath><clipPath
       clipPathUnits="userSpaceOnUse"
       id="clipPath49"><path
         d="M 0,500 H 500 V 0 H 0 Z"
         transform="translate(-223.9453,-373.62551)"
         id="path49" /></clipPath><clipPath
       clipPathUnits="userSpaceOnUse"
       id="clipPath39"><path
         d="M 0,500 H 500 V 0 H 0 Z"
         transform="translate(-434.18651,-246.8271)"
         id="path39" /></clipPath><clipPath
       clipPathUnits="userSpaceOnUse"
       id="clipPath41"><path
         d="M 0,500 H 500 V 0 H 0 Z"
         transform="translate(-412.46191,-191.81351)"
         id="path41" /></clipPath><clipPath
       clipPathUnits="userSpaceOnUse"
       id="clipPath43"><path
         d="M 0,500 H 500 V 0 H 0 Z"
         transform="translate(-440.73731,-260.9199)"
         id="path43" /></clipPath><clipPath
       clipPathUnits="userSpaceOnUse"
       id="clipPath3-4"><path
         d="M 0,500 H 500 V 0 H 0 Z"
         transform="translate(-102.0825,-332.72561)"
         id="path3-4" /></clipPath><clipPath
       clipPathUnits="userSpaceOnUse"
       id="clipPath5-1"><path
         d="M 0,500 H 500 V 0 H 0 Z"
         transform="translate(-87.458005,-304.51761)"
         id="path5-4" /></clipPath><clipPath
       clipPathUnits="userSpaceOnUse"
       id="clipPath7-2"><path
         d="M 0,500 H 500 V 0 H 0 Z"
         transform="translate(-115.73391,-373.62551)"
         id="path7-4" /></clipPath><clipPath
       clipPathUnits="userSpaceOnUse"
       id="clipPath33-8"><path
         d="M 0,500 H 500 V 0 H 0 Z"
         transform="translate(-322.83791,-354.29301)"
         id="path33-7" /></clipPath><clipPath
       clipPathUnits="userSpaceOnUse"
       id="clipPath35-7"><path
         d="M 0,500 H 500 V 0 H 0 Z"
         transform="translate(-303.94821,-304.51761)"
         id="path35-1" /></clipPath><clipPath
       clipPathUnits="userSpaceOnUse"
       id="clipPath37-2"><path
         d="M 0,500 H 500 V 0 H 0 Z"
         transform="translate(-332.22461,-373.62551)"
         id="path37-6" /></clipPath><clipPath
       clipPathUnits="userSpaceOnUse"
       id="clipPath45-9"><path
         d="M 0,500 H 500 V 0 H 0 Z"
         transform="translate(-198.89451,-354.95121)"
         id="path45-1" /></clipPath><clipPath
       clipPathUnits="userSpaceOnUse"
       id="clipPath47-5"><path
         d="M 0,500 H 500 V 0 H 0 Z"
         transform="translate(-195.66891,-304.51761)"
         id="path47-2" /></clipPath><clipPath
       clipPathUnits="userSpaceOnUse"
       id="clipPath49-4"><path
         d="M 0,500 H 500 V 0 H 0 Z"
         transform="translate(-223.9453,-373.62551)"
         id="path49-0" /></clipPath><clipPath
       clipPathUnits="userSpaceOnUse"
       id="clipPath39-1"><path
         d="M 0,500 H 500 V 0 H 0 Z"
         transform="translate(-434.18651,-246.8271)"
         id="path39-0" /></clipPath><clipPath
       clipPathUnits="userSpaceOnUse"
       id="clipPath41-0"><path
         d="M 0,500 H 500 V 0 H 0 Z"
         transform="translate(-412.46191,-191.81351)"
         id="path41-3" /></clipPath><clipPath
       clipPathUnits="userSpaceOnUse"
       id="clipPath43-6"><path
         d="M 0,500 H 500 V 0 H 0 Z"
         transform="translate(-440.73731,-260.9199)"
         id="path43-1" /></clipPath><clipPath
       clipPathUnits="userSpaceOnUse"
       id="clipPath3-3"><path
         d="M 0,500 H 500 V 0 H 0 Z"
         transform="translate(-102.0825,-332.72561)"
         id="path3-1" /></clipPath><clipPath
       clipPathUnits="userSpaceOnUse"
       id="clipPath5-4"><path
         d="M 0,500 H 500 V 0 H 0 Z"
         transform="translate(-87.458005,-304.51761)"
         id="path5-0" /></clipPath><clipPath
       clipPathUnits="userSpaceOnUse"
       id="clipPath7-0"><path
         d="M 0,500 H 500 V 0 H 0 Z"
         transform="translate(-115.73391,-373.62551)"
         id="path7-0" /></clipPath><clipPath
       clipPathUnits="userSpaceOnUse"
       id="clipPath33-4"><path
         d="M 0,500 H 500 V 0 H 0 Z"
         transform="translate(-322.83791,-354.29301)"
         id="path33-3" /></clipPath><clipPath
       clipPathUnits="userSpaceOnUse"
       id="clipPath35-0"><path
         d="M 0,500 H 500 V 0 H 0 Z"
         transform="translate(-303.94821,-304.51761)"
         id="path35-7" /></clipPath><clipPath
       clipPathUnits="userSpaceOnUse"
       id="clipPath37-5"><path
         d="M 0,500 H 500 V 0 H 0 Z"
         transform="translate(-332.22461,-373.62551)"
         id="path37-1" /></clipPath><clipPath
       clipPathUnits="userSpaceOnUse"
       id="clipPath45-8"><path
         d="M 0,500 H 500 V 0 H 0 Z"
         transform="translate(-198.89451,-354.95121)"
         id="path45-17" /></clipPath><clipPath
       clipPathUnits="userSpaceOnUse"
       id="clipPath47-4"><path
         d="M 0,500 H 500 V 0 H 0 Z"
         transform="translate(-195.66891,-304.51761)"
         id="path47-4" /></clipPath><clipPath
       clipPathUnits="userSpaceOnUse"
       id="clipPath49-2"><path
         d="M 0,500 H 500 V 0 H 0 Z"
         transform="translate(-223.9453,-373.62551)"
         id="path49-9" /></clipPath><clipPath
       clipPathUnits="userSpaceOnUse"
       id="clipPath39-8"><path
         d="M 0,500 H 500 V 0 H 0 Z"
         transform="translate(-434.18651,-246.8271)"
         id="path39-5" /></clipPath><clipPath
       clipPathUnits="userSpaceOnUse"
       id="clipPath41-6"><path
         d="M 0,500 H 500 V 0 H 0 Z"
         transform="translate(-412.46191,-191.81351)"
         id="path41-1" /></clipPath><clipPath
       clipPathUnits="userSpaceOnUse"
       id="clipPath43-7"><path
         d="M 0,500 H 500 V 0 H 0 Z"
         transform="translate(-440.73731,-260.9199)"
         id="path43-6" /></clipPath></defs><g
     inkscape:label="Calque 1"
     inkscape:groupmode="layer"
     id="layer1"
     transform="translate(-103.93327,-64.027203)"><g
       inkscape:label="Calque 1"
       id="layer1-3"
       transform="translate(-40.966747,4.4959533)"
       style="fill:#011202;fill-opacity:1"><path
         id="path32"
         d="m 0,0 c 0,0 -0.379,2.782 -1.531,4.001 -1.465,1.597 -3.111,1.597 -3.868,1.696 -5.4,0.395 -13.482,0.395 -13.482,0.395 h -0.016 c 0,0 -8.082,0 -13.482,-0.395 C -33.137,5.598 -34.767,5.598 -36.247,3.984 -37.399,2.766 -37.762,0 -37.762,0 c 0,0 -0.395,-3.243 -0.395,-6.503 v -0.394 -2.651 c 0,-3.26 0.395,-6.503 0.395,-6.503 0,0 0.363,-2.765 1.515,-3.984 1.48,-1.613 3.407,-1.564 4.263,-1.729 3.079,-0.296 13.103,-0.395 13.103,-0.395 0,0 8.082,0.016 13.482,0.412 0.757,0.099 2.403,0.099 3.868,1.712 1.152,1.219 1.531,3.984 1.531,3.984 0,0 0.379,3.243 0.379,6.503 v 2.486 0.559 C 0.379,-3.243 0,0 0,0 m -12.461,-7.622 -10.403,-5.613 v 8.642 2.634 l 4.691,-2.551 z"
         style="fill:#011202;fill-opacity:1;fill-rule:evenodd;stroke:none"
         transform="matrix(0.35277776,0,0,-0.35277776,166.28917,71.42254)"
         clip-path="url(#clipPath33-4)" /><path
         id="path34"
         d="m 0,0 c -23.016,0 -41.741,18.726 -41.741,41.741 0,23.016 18.725,41.742 41.741,41.742 2.823,0 5.646,-0.284 8.387,-0.843 1.509,-0.308 3.014,-0.704 4.476,-1.177 0.738,-0.238 1.142,-1.029 0.903,-1.767 -0.238,-0.737 -1.028,-1.141 -1.767,-0.903 -1.362,0.441 -2.767,0.811 -4.174,1.098 C 5.268,80.413 2.636,80.677 0,80.677 -21.47,80.677 -38.935,63.21 -38.935,41.741 -38.935,20.272 -21.47,2.807 0,2.807 c 21.47,0 38.936,17.465 38.936,38.934 0,6.391 -1.582,12.728 -4.574,18.325 -0.365,0.684 -0.106,1.534 0.576,1.899 0.681,0.365 1.534,0.108 1.9,-0.576 3.208,-6.003 4.904,-12.797 4.904,-19.648 C 41.742,18.726 23.017,0 0,0"
         style="fill:#011202;fill-opacity:1;fill-rule:nonzero;stroke:none"
         transform="matrix(0.35277776,0,0,-0.35277776,159.62531,88.982195)"
         clip-path="url(#clipPath35-0)" /><path
         id="path36"
         d="m 0,0 c -0.355,0 -0.711,0.134 -0.984,0.402 -0.995,0.979 -2.055,1.914 -3.148,2.779 -0.846,0.67 -1.724,1.307 -2.61,1.896 -0.646,0.429 -0.821,1.3 -0.392,1.945 0.428,0.645 1.301,0.821 1.945,0.393 C -4.238,6.783 -3.297,6.099 -2.391,5.381 -1.22,4.455 -0.084,3.453 0.983,2.403 1.536,1.86 1.544,0.972 1.001,0.419 0.726,0.14 0.362,0 0,0"
         style="fill:#011202;fill-opacity:1;fill-rule:nonzero;stroke:none"
         transform="matrix(0.35277776,0,0,-0.35277776,169.60059,64.602463)"
         clip-path="url(#clipPath37-5)" /></g></g></svg>
